<?xml version="1.0" encoding="utf-8"?>

<!DOCTYPE svg PUBLIC "-//W3C//DTD SVG 1.1//EN" "http://www.w3.org/Graphics/SVG/1.1/DTD/svg11.dtd">
<svg version="1.1" id="Layer_1" xmlns="http://www.w3.org/2000/svg" xmlns:xlink="http://www.w3.org/1999/xlink" x="0px" y="0px"
	 viewBox="0 0 1634.082 1643.123" enable-background="new 0 0 1634.082 1643.123" xml:space="preserve">
<g>
	<g>
		<g>
			<path fill="#D8D9DA" stroke="#000000" stroke-width="2.7842" d="M1278.324,1187.941c-24.746,4.516-59.296,15.448-81.045,28.029
				c-33.652,19.468-60.721,1.31-96.916-4.787c-37.228-6.275-86.584-8.974-123.437-2.428c-19.546,3.477-23.3,18.288-39.505,26.27
				c-19.87,9.778-40.465,0.961-59.265-5.513c-19.906-6.855-41.603-10.279-61.379-18.836c-11.162-4.834-19.045-12.321-21.003-24.949
				c-2.188-14.117,7.262-16.701,9.329-25.539c5.351-22.892-7.737-34.096-16.857-52.718c-6.364-12.994-3.545-18.575,3.002-30.802
				c12.973-24.234,19.875-54.075,41.311-69.424c2.005,27.862-9.162,76.842,12.065,96.691c21.185,19.807,59.223,8.593,85.383,10.212
				c9.502,23.033,16.711,47.857,23.89,71.183c41.473,10.817,99.996-11.287,136.775-29.7c30.452-15.244,60.434-41.159,83.426-64.924
				c17.609-18.21,23.216-44.375,44.088-60.481c13.829-10.676,28.494-20.736,38.44-35.412c10.097-14.879,11.992-32.284,19.703-47.983
				c16.053-32.77,56.346-20.82,83.321-41.864c8.102-6.322,12.697-17.949,23.096-19.348c7.69-1.034,16.215,7.069,25.639,5.419
				c12.41-2.161,14.43-8.792,21.467-18.549c15.213-21.097,30.583-41.854,46.333-62.648c7.257-9.564,14.445-16.951,19.838-27.956
				c3.581-7.298,4.203-19.536,7.852-25.409c7.168-11.511,21.754-18.831,29.408-30.671c7.481-11.569,13.37-26.458,18.371-39.499
				c6.802-17.714,0.981-34.681,5.174-52.859c3.085-13.318,18.857-21.754,16.179-36.247c3.091,16.685,15.792,33.532,18.93,51.935
				c5.257,30.807,9.079,60.643,15.296,91.382c10.546,52.107,4.96,105.942-10.864,156.379c-7.152,22.793-14.451,44.36-20.052,66.975
				c-5.811,23.493-24.516,40.58-38.559,59.442c-10.206,13.709-18.444,28.301-29.601,41.248
				c-11.047,12.832-22.464,24.145-34.801,34.806c-30.248,26.135-60.084,65.895-98.461,80.142
				C1343.326,1191.225,1310.755,1182.016,1278.324,1187.941z"/>
			<path fill="#FFFFFF" d="M1118.343,1162.527c8.108-30.243,35.996-21.911,55.339-33.073c-5.132-13.485,8.478-32.091,20.663-39.557
				c7.46-4.568,13.908-6.484,19.134-10.849c5.393-4.495,12.984-13.245,20.7-19.134c-1.827-1.331-3.169-5.336-6.615-7.016
				c6.557-10.76,22.386-12.947,32.222-21.65c35.829,16.408,58.664-54.305,76.373-69.93c-4.646,11.261,1.796,20.642,2.25,31.428
				c-10.53,3.399-22.412,9.752-21.441,21.331c-11.637,4.281-47.91,25.513-31.083,37.239c12.571,8.765,44.715-11.877,57.469-14.56
				c-1.754-7.408-8.437-11.376-15.406-13.386c23.545-14.106,37.03-25.409,61.677-40.94c-11.016,9.162-25.994,20.35-32.211,33.621
				c4.098-0.773,8.995-0.277,13.333-2.198c-6.865,0.971-11.162,4.787-10.786,11.433c24.975,2.067,52.165-7.606,73.282-18.434
				c-19.504,9.032-37.834,23.978-55.532,32.744c-9.486,4.699-36.184,9.757-25.247,26.688c-11.987-0.125-13.897,8.922-6.969,16.878
				c-9.496,1.9-29.585-2.448-36.926,0.94c-13.892,6.432-8.635,19.619,4.678,19.891c-11.177-0.475-27.993,2.595-34.446,12.07
				c-6.202,9.12-2.141,18.58-12.169,29.267c26.87-29.794,77.866,1.42,109.654-21.326c-25.539,18.293-58.006,12.853-86.229,19.948
				c-18.638,4.683-34.493,16.382-54.984,16.356c5.518-2.354,8.014-5.795,12.509-9.1c-20.977,4.709-44.876,14.237-66.532,11.235
				c-12.78-1.775-20.246-5.069-32.54-4.438c-10.755,0.553-21.201,2.146-32.483,2.188"/>
			<path fill="#BCBEC0" d="M974.484,1204.292c-19.724-1.739-29.528,16.816-43.504,22.741c-10.572,4.474-28.86,5.241-41.817,2.266
				c-15.537-3.566-27.795-11.783-42.292-20.418c-12.535-7.471-29.867-10.974-39.776-20.841
				c16.142-20.287,47.581-14.252,65.305-5.147c8.374,4.307,65.67,38.001,64.6,10.138c-28.51,1.592-53.835-16.946-71.413-34.106
				c1.958,0.673,3.999,0.971,5.957,1.514c-0.997-6.834,3.044-6.985,7.81-12.112c12.3,18.152,36.56,21.984,57.709,20.809
				c0.872-21.389-36.675-15.918-48.714-29.825c0.606-2.438,3.801-9.214,5.33-11.188c3.117-0.151,7.956-1.399,10.958-0.867
				c-5.701-6.74-52.624-2.939-55.448,8.938c-3.811-5.466-21.018,1.206-30.687-3.153c-12.357-5.56-25.581-23.78-31.731-34.853
				c24.542-17.16,20.679-54.493,34.112-74.754c-4.338,35.156,4.636,80.299,42.183,93.256c15.965,5.513,44.777-0.955,58.173,6.787
				c8.421,4.876,16.288,31.825,20.762,41.358c10.598,22.558,7.252,25.482,34.749,25.524c23.216,0.036,43.128-4.745,65.086-8.713
				c17.573-3.169,31.867-16.194,48.562-18.606c13.427-1.937,32.718,5.048,46.458,6.5c19.865,2.093,40.82,3.55,60.956,2.375
				c17.828-1.039,35.072-7.659,51.726-11.877c-35.531,10.608-74.838,23.555-112.572,21.029c-17.776-1.19-39.781-12.968-55.099-0.444
				c18.643,0.538,35.756,12.942,54.921,14.43c19.891,1.545,38.502,1.399,58.236-0.052c18.831-1.389,45.832-4.558,62.909-12.937
				c-28.823,11.073-62.971,20.804-93.183,26.338c-25.252,4.625-44.558-8.959-69.607-13.923
				c-44.647-8.844-88.766,3.55-132.254,12.117"/>
			<path fill="#BCBEC0" d="M1320.214,953.707c-9.789,6.756-21.744,12.002-22.224,25.336c7.559-10.41,15.448-17.567,28.938-18.826
				C1325.686,957.189,1323.096,955.289,1320.214,953.707"/>
			<path fill="#BCBEC0" d="M1287.721,1171.809c2.569-3.503,5.821-6.04,9.747-7.601c26.416,19.024,66.892,6.26,94.008-3.634
				c-38.633,29.554-80.006,10.405-121.609,15.928c7.392-1.222,14.273-5.111,20.188-9.334"/>
			<path fill="#BCBEC0" d="M1573.112,782.001c-11.804,2.208-19.51,14.508-20.58,25.231c2.13,0.104,4.265,0.506,6.374,0.632
				c-1.06,8.426-9.857,15.354-6.886,23.028c0.694,1.801,13.756,9.23,16.388,13.704c14.08,23.858,6.181,68.672-4.203,92.374
				c10.462-27.972,24.422-64.318,22.355-94.509c-2.422,2.642-6.5,2.85-8.463,4.203c0.308-6.374-2.71-9.267-0.553-15.594
				c-25.007-0.209-6.463-40.627-6.735-53.71"/>
		</g>
		<g>
			<path fill="#D8D9DA" stroke="#967348" stroke-width="2.7842" d="M468.563,911.827c-67.492,11.559-19.603-101.181-20.778-127.164
				c-1.295-28.781-20.115-53.945-23.42-81.651c-2.824-23.686,0.997-45.315-6.562-69.215c19.53-5.08,38.967-60.617,44.208-78.941
				c11.856,0.308,15.338-12.623,21.112-20.997c9.162,4.558,10.587-5.831,17.917-4.573c7.45,1.274,10.285,8.332,16.247,10.786
				c13.882,5.717,25.075,2.12,41.379,3.242c3.738,8.374,15.641,6.087,19.061,15.714c2.971,8.348-5.304,14.091-5.863,21.535
				c-0.527,7.121,3.456,13.067,3.848,20.131c0.856,15.573-4.177,29.528-7.914,44.443c-7.236,29.011-2.501,44.845,3.482,73.428
				c5.289,25.304-3.936,51.329-8.828,75.976c-4.803,24.234,0.694,20.679,7.377,42.11c3.482,11.125,3.487,12.289,2.777,25.346
				c-0.35,6.51,1.347,26.312-2.741,31.131c-5.038,5.925-39.249,9.997-49.627,13.213c-18.11,5.623-39.296,11.741-58.471,10.467
				c-2.683-0.841-2.73-2.501-0.167-4.986"/>
			<path fill="#FFFFFF" d="M449.664,678.001c1.942-2.026,5.059-4.13,7.455-5.743c1.41,5.706,3.059,9.951,0.068,16.461
				c3.112-0.616,7.894,1.284,11.021,0.71c0.935,14.117-2.208,29.643,3.179,43.023c1.201-2.553,3.075-4.944,4.119-7.742
				c0.679,5.095,5.936,10.264,7.09,13.433c3.498,9.606,2.25,20.935,2.088,31.6c4.297-9.731,8.149-19.729,12.284-29.444
				c15.756,2.647,38.664-8.959,23.556-30.395c0.955-1.671,3.148-5.195,4.286-6.688c-0.256-0.371,2.36,3.858,1.686,3.472
				c0.282-0.867,0.877-1.206,1.812-1.039c18.58,23.9,4.531,59.625,14.43,87.122c9.481-21.921,7.231-49.33,2.845-70.531
				c-4.933-23.874-0.835-49.178,1.378-72.468c-7.048,8.264-11.282,23.686-18.079,31.95c-3.592-10.238-9.22-22.005-14.503-31.966
				c-1.535,1.733-4.886,3.832-6.609,6.014c10.822-19.546-18.262-19.134-31.272-26.771
				C479.657,641.681,457.375,669.94,449.664,678.001z"/>
			<path fill="#BCBEC0" d="M516.175,899.345c2.396-0.731,4.672-1.436,6.808-2.093c29.497-9.068,32.618-23.921,28.541-55.375
				c-7.836,10.655-17.682,21.321-31.7,22.621c-0.146-0.12-3.665-5.795-2.892-5.685c-11.71-1.65-19.337,8.724-29.591-0.172
				c2.057-6.139,1.483-11.444,2.214-17.928c-11.908,18.027-29.919-2.094-30.327-17.056c-0.376-14.268,16.816-37.62,5.602-48.604
				c2.824-7.727,2.172-15.996-2.72-22.616c-7.721,18.382-11.579,46.563-16.179,66.453c-4.114,17.792-21.243,84.538,4.072,90.145
				C468.354,913.096,496.269,905.39,516.175,899.345z"/>
			<path fill="#BCBEC0" d="M482.481,582.348c-5.294,4.84-8.912,11.016-8.932,17.641c1.143-0.762,2.401-1.138,3.775-1.117
				c3.357,6.186,3.409,13.49,3.373,20.407c5.784-8.713,5.946-26.333-0.532-34.608"/>
			<path fill="#BCBEC0" d="M512.646,568.425c-4.218,4.119-7.68,6.333-6.635,11.47c16.278-5.226,11.287,37.876,11.162,42.266
				C521.307,612.106,518.879,568.414,512.646,568.425"/>
			<path fill="#CDB35C" d="M549.765,575.389c0,2.313,0,4.636,0,6.959"/>
		</g>
		<g>
			<path fill="#D8D9DA" stroke="#000000" stroke-width="2.7842" d="M536.974,539.409c-7.867-22.772,20.266-66.756,26.307-81.63
				c9.089-22.428,7.502-46.537,17.296-67.743c9.564-20.71,27.805-39.76,28.52-62.475c0.527-16.403-12.133-30.41-11.825-46.072
				c0.271-13.923,12.697-35.636,21.227-46.432c16.048-20.303,36.623-33.438,37.004-65.618c0.157-12.42-6.51-27.534-1.895-39.494
				c3.299-8.551,10.065-8.932,14.127-15.97c5.341-9.277,2.125-18.789,6.119-27.596c18.549-41.008,87.247-48.923,125.4-55.986
				c20.888-3.874,41.896-6.374,63.023-8.551c17.661-1.822,35.84,5.863,54.154,5.936c21.535,0.084,42.976-2.908,64.506-2.542
				c98.487,1.66,195.768,30.04,286.628,66.312c85.477,34.117,152.776,116.775,205.134,189.895
				c35.86,50.092,53.96,100.518,68.072,159.511c13.991,58.502,17.343,120.476,42.444,175.873c-0.841,0.846-1.65,1.707-2.459,2.584
				c-1.963-0.726-4.124-1.237-6.197-1.817c0.318,7.304,2.929,15.354,4.104,22.339c-4.417-4.072-9.387-5.8-13.245-10.159
				c-0.647,12.895,25.226,29.972,4.093,37.881c-2.146-8.311-4.86-6.876-8.818-10.483c0.783,11.611-8.885,27.069,1.055,35.004
				c-2.422,9.068-10.598,10.989-10.269,18.58c0.423,9.611,10.159,12.958,12.634,22.329c-8.045,1.759-13.245-5.758-17.16-10.948
				c-8.332,12.556,11.997,28.202,4.234,41.279c-6.98-2.84-9.804-11.109-12.195-18.022c-2.323-0.146-10.77,1.352-13.099,2.307
				c-1.133,8.249,1.984,16.1,8.651,21.029c-0.59,1.853-1.436,3.728-2.062,5.649c-5.236-7.069-6.776-3.587-13.548-5.795
				c0.251,10.149-7.429,11.193-9.695,20.481c-2.161,8.917-0.13,17.322,1.895,25.398c-4.542-4.323-19.817-30.452-22.235-18.434
				c-3.32,16.44,19.864,26.615,15.406,43.775c-20.298,4.996-11.689-36.873-31.835-31.773c3.931,10.77,7.043,25.383,2.13,36.064
				c-6.719-8.478-15.902-24.803-18.257-5.737c-1.53,12.368,12.018,23.493,4.286,38.346c-4.5-9.34-7.742-21.504-13.401-29.329
				c-7.727,14.832,0.48,35.02-5.226,50.792c-10.149,28.061-10.462-0.11-27.487,0.355c-0.115,14.68-2.824,25.148-12.409,34.216
				c-6.682-2.402-11.929-6.99-15.547-13.052c7.899-3.44,7.105-5.779,8.692-12.028c-2.067,0.632-3.947,1.597-6.134,1.765
				c-0.663-9.34-8.311-13.986-18.679-10.906c0.057,2.589-0.987,6.014-0.71,8.567c-8.337,0.877-14.649-6.348-20.12-11
				c-5.001,14.482,21.196,12.958,10.796,31.893c-10.389,5.288-19.483-2.099-29.465,2.386c1.206-2.407,1.984-6.072,4.177-8.64
				c-5.017,1.754-13.809,7.758-20.71,6.703c-10.619-1.624-4.641-16.382-18.21-9.616c-2.224-30.812,5.967-47.951-30.003-48.343
				c-21.076-0.23-49.476,11.412-69.784,4.725c0.162,7.565-4.051,12.289-11.642,13.448c1.274-9.611,8.29-22.804-0.298-30.254
				c-6.468,7.168-1.253,22.156-6.667,27.706c-8.651,8.87-23.289-4.657-26.333,11.887c-3.916-3.764-7.497-7.544-9.152-13.349
				c-0.444-1.571-15.667,0.846-17.343,1.154c4.839-11.203-8.781-16.393-13.14-26.255c-9.173-20.815-3.983-50.207-9-72.828
				c-5.518-24.918-20.24-45.649-26.834-69.518c-3.179-11.501,4.631-30.154-0.016-37.693c-5.487-8.917-7.319-0.94-12.681-4.531
				c-6.818-4.568-6.265-2.939-11.605-8.828c-7.251-8.024-9.559-21.525-17.99-29.805c-1.859-1.832-9.355-2.689-12.284-4.944
				c-3.654-2.804-6.766-8.938-10.979-12.284c-5.518-4.38-14.242-4.719-18.194-10.911c-2.396-3.743,1.806-10.478-0.308-14.033
				c-6.025-10.091-12.415-11.271-24.234-15.547c-56.195-20.334-118.451-40.7-177.799-46.913
				c-30.243-3.164-48.171,3.482-76.346,13.219c-32.206,11.13-57.756,23.409-91.888,31.319c-12.973,3.012-33.704,18.042-44.767,5.863
				c-5.565-6.139-0.59-19.953-9.632-27.434c-7.533-6.233-18.512-1.702-25.002-7.314
				C539.757,545.172,538.034,542.489,536.974,539.409z"/>
			<path fill="#FFFFFF" d="M1198.407,854.087c22.846-7.758,99.484-37.5,100.105-66.887c51.533-18.356,68.735,26.333,65.039,69.184
				c5.513-4.03,13.391-14.425,15.182-21.368c3.206-12.373,2.151-10.3-5.502-22.814c1.911-1.086,3.821-3.284,5.983-4.396
				c-3.968-5.821-9.371-9.93-13.177-16.894c-3.164-5.816-2.104-21.472-5.059-25.043c-4.808-5.826-12.952-0.757-16.445-4.427
				c-6.04-6.354-3.456-11.736-5.017-20.736c-10.629,1.54-20.695,12.054-30.118,18.136c-20.486,13.25-42.271,24.281-64.506,34.32
				c-23.769,10.739-50.191,29.476-76.174,32.201c12.049-5.737,29.972-19.191,36.409-31.214c4.02-7.507,2.709-17.218,5.346-25.691
				c13.375,7.81,8.604-6.009,10.744-13.683c-0.391,1.415-1.462-9.611-1.462-9.684c-0.005-4.881,6.724-4.5,6.134-11.621
				c-0.971-11.736-10.775-12.352-8.452-25.973c2.187-12.811,11.459-24.949,13.85-38.732c3.017,2.177,12.169,4.432,15.479,6.354
				c0.48-12.112-18.585-17.761-29.303-18.324c14.487-0.23,29.262-2.579,43.577-4.986c-2.208-9.387,0.689-5.074,2.396-12.806
				c2.981,12.159,9.455,22.271,18.084,31.12c5.335-14.435,0.303-30.186,6.792-46.448c9.794-24.532,14.988-49.883,14.393-71.611
				c0.976,2.642,3.628,5.753,4.291,7.157c-0.016-2.621,0.611-5.805,0.804-8.395c2.72,3.722,8.52,7.465,10.833,10.77
				c-1.175-21.185-18.476-56.174-27.633-75.892c5.403,15.02,7.92,31.277-0.303,45.832c-25.743-28.823-24.365,41.3-25.346,53.365
				c-18.747-13.38-8.651-48.693-11.605-67.132c-3.028-18.946-14.466-24.506-27.377-31.987c3.999-3.634,19.092-6.474,20.935-9.684
				c4.986-8.677-1.389-17.426-0.339-25.257c-9.209,0.553-17.573,6.479-27.367,3.748c0.679-1.822,0.955-4.401,1.827-6.552
				c-8.014-4.312-32.806-10.979-16.267-23.143c-8.833-13.605-18.272-17.353-34.942-14.618
				c-23.294,3.822-37.056,12.874-34.686-15.145c-3.816-0.543-8.05-4.537-11.188-5.106c1.154-1.603,2-3.247,3.634-4.991
				c-4.234-7.742-10.53-13.876-17.15-19.656c17.875,5.91,35.615-6.886,52.076-9.857c-23.743,11.428,5.21,23.096,17.066,25.732
				c16.33,3.628,21.488-2.85,36.665-2.589c-0.799,14.962,11.219,17.014,18.455,5.059c2.595,6.949,5.993,14.064,12.159,18.444
				c10.139-7.293,0.527-21.258,16.487-26.228c14.748-4.594,27.189,8.405,32.431,19.88c-1.963-9.35-4.887-18.679-8.703-27.361
				c20.266-3.936,4.244-14.477-2.678-22.517c-9.037-10.509-19.201-23.148-21.102-36.785c27.027,0.235-0.919-47.179-9.314-57.641
				c6.693,6.98,16.878,12.66,22.631,22.203c6.202,10.279,5.262,23.597,9.716,34.378c-1.028-11.141,10.373-10.473,18.711-7.001
				c16.236-29.074-37.823-90.541-62.11-101.395c2.067-0.788,3.811-1.89,5.837-2.783c-8.912-11.772-28.755-17.066-34.884-32.248
				c11.579-4.652,4.918-13.125-1.796-20.193c8.739-2.725,18.392-3.362,27.398-3.075c-0.616-8.588-1.232-18.841,8.771-20.872
				c-5.116-19.003-34.346-30.05-50.181-36.91c-29.131-12.634-59.928-19.363-90.374-27.074
				c-51.585-13.062-98.106-12.53-150.579-12.253c-51.266,0.271-101.62,7.648-152.066,16.685c-14.492,2.589-40.35,8.296-53.945,1.916
				c2.85-3.649,3.597-7.779,1.451-11.861c-6.792,9.82-22.861,10.446-32.509,18.022c-11.621,9.126-26.526,21.086-27.466,34.336
				c-1.112,15.824,7.737,22.553-8.092,32.545c-5.597,3.534-17.86,11.266-17.009,19.327c0.961,9.021,12.096,8.384,13.401,18.199
				c2.882,21.702-25.346,52.765-35.02,70.489c-4.526,8.275-19.473,24.198-18.142,34.691c1.321,10.53,13.819,11.564,16.163,22.84
				c2.788-2.24,6.27-1.065,9.381-6.369c20.83,12.086,58.622-5.195,80.596-9.402c46.667-8.943,90.327-21.285,138.973-18.283
				c0.235,1.336,0.465,2.678,0.694,4.02c9.841-4.887,21.869-8.123,31.418-14.033c-5.811,3.112-9.977,8.082-10.739,13.908
				c7.606,0.616,15.333-1.671,21.232,0.313c-13.96,9.157-36.445,8.917-53.632,9.319c-34.148,0.794-65.581-3.498-99.996,1.754
				c-35.161,5.367-86.067,20.193-108.265,49.361c2.026,0.412,3.654,1.081,5.435,1.691c-5.946,3.968-11.616,8.05-17.599,12.18
				c5.576,12.315-29.215,40.204-35.187,53.47c-5.414,11.992-6.025,18.251,2.114,28.238c11.344,13.929,53.976,18.805,71.507,17.938
				c-14.988,15.563,56.174,32.838,72.525,20.355c-1.718-3.56-0.6-7.293-1.791-10.598c34.44,3.613,60.46-21.457,94.384-30.217
				c3.947,17.296,28.573,6.28,36.831-2.516c-5.664-5.978-7.314-12.3-2.177-17.797c13.944,7.413,39.144,5.972,51.653-2.375
				c7.523,14.237,19.938,14.675,31.157,15.359c27.758,1.686,39.384,6.421,63.373,22.569c-20.434-4.396-47.957-11.689-71.491-17.296
				c-24.38-5.8-48.834-11.699-71.074,4.135c0.214,2.229,1.222,1.942,1.415,3.983c-32.676,12.822-70.045,12.362-101.917,28.379
				c-27.539,13.835-41.635,20.256-71.418,11.992c-0.433,1.556-1.347,2.709-2.772,3.461c-32.645-20.893-90.578-32.53-116.013,7.46
				c33.777,2.485,70.954-8.202,104.157-3.769c-12.785,4.725-27.977,10.525-41.514,17.52c-15.918,8.233-20.246,18.136-32.258,30.28
				c1.483,0.506,5.779-0.543,3.947-0.35c-0.392,0.115-3.252,2.84-3.305,3.305c0.308-0.13,3.634-2.725,3.733-2.84
				c10.692,15.276,21.128-4.067,34.602-1.55c-1.013,2.24-1.196,4.119-1.838,6.129c13.929-4.928,37.667-2.918,53.538-4.349
				c30.4-2.746,61.932-1.164,92.217,2.261c23.848,2.699,46.886,4.015,70.364,9.982c15.041,3.821,35.208,15.766,50.008,15.307
				c2.903-27.267,47.388-59.259,71.716-69.628c-20.71,21.013-47.544,37.134-59.479,64.945c15.119-1.864,50.003,23.315,62.997,33.344
				c12.169,9.413,10.671,24.918,19.724,32.133c11.652,9.298,36.45-17.625,49.492-25.028c-11.23,10.17-31.308,20.084-35.265,35.777
				c0.355-0.935,1.034-1.368,2.031-1.295c0.94,8.598,6.348,14.571,13.803,15.735c7.633-10.749,39.379-21.932,50.964-16.121
				c-13.109,9.71-29.048,14.858-42.663,23.822c19.917,18.591,22.517,27.544,24.693,52.859c0.846,9.783,5.236,22.558,14.044,27.894
				c11.438,6.928,49.319,3.127,62.084-0.172c-18.956,1.269-45.158,0.548-59.531,13.521c22.892,4.333,30.384,19.828,56.921,16.654
				c-9.267,1.462-41.457,0.569-47.858,6.891c-12.519,12.357,4.86,11.887,9.47,21.519c2.281,4.73,5.163,22.396,5.106,27.382
				c-0.104,7.236-4.928,14.033-2.595,22.903c1.817-0.762,6.139-0.658,8.468-1.671c4.401,8.593,8.296,19.243,7.774,29.585
				c4.824-1.78,13.062-3.952,18.324-2.135c4.135,1.425,9.397,11.585,10.864,11.814c12.54,1.979,21.702-11.924,6.025-19.233
				c9.162-9.575,16.993-1.524,27.079-6.453"/>
			<path fill="#BCBEC0" d="M1407.216,250.823c-9.006,6.181-13.95,16.56-13.563,27.252c1.216-0.731,4.881-2.01,6.714-3.221
				c4.839,7.325-3.942,17.557-0.397,23.926c5.362,9.627,8.108,0.647,15.965,5.644c17.99,11.433,31.94,43.801,30.316,64.715
				c-2.814-1.211-5.738-1.049-8.113-1.832c3.331,3.414,13.678,10.18,15.182,13.965c1.733,4.359-5.08,7.403-3.994,10.567
				c1.932,5.581,6.155,10.922,8.473,16.873c4.093,10.457,9.465,43.791-11.313,39.614c-2.553,6.186-3.957,13.532-6.667,20.084
				c-2.746-0.929-4.349-1.269-7.231-3.414c-2.798,8.353,14.503,18.001,16.544,31.423c1.796,11.726-5.675,23.477-0.193,34.503
				c1.331-3.393,5.983-7.074,7.643-10.196c3.999,11.287,15.991,16.424,26.411,9.152c-1.002-0.747-1.457-1.759-1.378-3.044
				c10.42-4.349,23.655,8.823,20.387,20.674c-2.109,0.271-4.203,0.501-6.307,0.642c1.629,9.794,15.625,12.911,21.144,22.856
				c6.16,11.11,6.369,28.839,6.515,41.306c0.428,37.818-22.37,72.911-5.294,111.8c0.814-9.402,4.96-15.98,9.94-24.443
				c1.723,3.002,7.241,6.072,8.75,8.217c6.536-22.459,6.761-44.255,16.643-67.304c9.418-21.948,11.287-29.852,8.651-53.678
				c-4.359-39.259-9.752-73.616-25.524-110.453c-14.811-34.581-18.053-71.152-36.44-104.992
				c-13.224-24.349-29.256-47.236-48.327-67.383c-16.575-17.52-28.395-46.187-46.448-60.027c-0.846,6.171-3.305,4.578-5.116,8.264
				c-2.057-1.843-2.997-3.754-4.568-6.139"/>
		</g>
		<g>
			<path fill="#FFFFFF" stroke="#000000" stroke-width="2.7842" d="M782.678,48.56c-1.055,5.158,34.31-25.388,32.53-24.882
				c-34.289,9.747-75.015,9.773-110.51,14.247c-23.942,3.023-49.236,8.765-72.379,16.069
				c-137.903,43.498-245.86,130.678-344.092,235.753c-15.918,17.019-30.849,32.665-39.264,53.882
				c-8.943,22.511-15.996,45.748-26.756,67.8c-27.367,56.106-74.368,114.389-54.566,180.983c5.471,18.382,31.35,38.857,17.098,59.4
				c15.359,4.009,10.41,19.154,13.574,30.368c5.931,20.987,14.748,15.672,29.554,23.263c16.21,8.316,22.24,21.123,37.453,30.922
				c-9.11-5.873,22.407-22.746,25.346-23.482c10.64-2.668,29.627-2.553,38.925,4.27c21.363,15.678,10.399,52.097,9.152,74.008
				c-0.914,15.98-19.692,57.641-9.392,69.366c27.591-13.741,29.789-59.113,32.493-85.728c2.12-20.977-2.788-42.355,1.143-63.29
				c1.812-9.575,3.842-20.078,12.086-26.328c4.881-3.696,34.628-4.599,32.686-1.357c5.289-8.891,13.323-10.285,18.037,0.172
				c6.954-17.557-5.116-41.943,18.298-50.818c-6.594-17.014,0.115-15.349,4.923-24.991c-0.219,0.433,6.855-12.759,5.048-11.705
				c0.11-0.063,16.226-5.398,13.49-1.989c3.393-4.224,9.194-61.04,29.596-33.067c1.879-7.048-4.401-14.294,4.704-18.079
				c1.702,7.972,6.923,24.594,12.462,9.439c6.536-1.399,12.268,0.898,16.471,6.27c25.075-9.34,10.718-24.741,20.084-45.649
				c0.851-1.926,9.888-1.415,11.355-5.456c1.77-4.881-2.495-12.362-2.02-18.163c1.195-14.633,12.744-27.137,14.44-41.525
				c21.457,3.164,12.566-17.463,11.715-26.218c-1.629-16.722,1.008-22.339,9.22-38.758c2.088,0.397,4.103,1.075,6.04,1.759
				c0.172,0.057,1.342-7.215,1.399-7.826c14.31-0.72,8.212-10.681,14.164-18.627c5.722-7.653,15.182-11.344,20.334-19.489
				c7.251-11.464,5.309-30.4-11.887-28.311c0.167-2.616-0.851-5.967-0.689-8.588c-6.782-0.277-12.342-3.294-15.651-9.026
				c7.721-2.762,14.09,0.439,22.767-0.945c-4.652-3.764-3.686-5.8-11.104-6.954c1.796-13.725,12.065-1.524,20.574-4.772
				c10.775-4.119,8.16-15.427,20.59-16.179c0.235-8.745-8.369-12.091-15.004-14.038c3.002-1.472,3.644-3.284,8.165-4.636
				c-3.905-1.07-9.282-6.385-13.052-8.87c9.105-4.438,11.84,5.529,20.303,4.793c15.693-1.347,3.065-0.804,2.14-9.444
				c0.256,2.391-15.129-11.929,0.068-9.392c8.724,1.462,7.486,16.748,18.21,8.917c0.026-1.806-1.472-1.812-1.749-3.597
				c8.061-1.102,14.853,1.587,22.788,1.399c-4.286-5.195-32.838-7.554-24.975-20.585c5.837-9.679,24.526,13.036,31.768,13.866
				c-1.9-5.753-2.292-9.648-8.739-13.271c10.217,1.566,16.612,16.095,26.855,6.709c-3.738-4.302-5.717-8.379-11.12-9.465
				c5.205-2.736,11.36-0.59,18.544-0.35c5.346-22.256-24.939-8.713-36.717-14.033c4.693-10.713,21.697-6.176,32.065-6.839
				c0.407-16.92-17.338-3.968-27.184-4.652c0.971-16.461,22.396-3.216,30.133-13.568c-7.001-8.88-20.836-1.269-30.139-0.35
				c2.026-8.75,11.48-7.492,20.225-6.949c1.133-22.031-38.998,7.774-47.534-8.363c18.799-17.071,64.214,13.527,79.609-10.551
				c-9.439-2.887-20.914-1.258-31.016-2.036c3.999-2.334,8.019-6.802,12.394-8.99c-10.071,0.292-26.536,4.109-33.208-2.208
				c10.342-9.34,34.206,2.663,38.612-11.767c-10.467-2.511-27.784,3.832-37.04-2.14c11.24-6.338,27.419,6.599,36.785-4.067
				c-9.183-6.176-25.143-2.569-36.445-3.247c-0.94-20.554,28.191-10.953,36.524-19.964c-11.089-7.283-24.391,1.102-36.696-0.929
				c6.124-17.239,30.614-9.83,32.707-24.772c12.514-0.846,7.492-11.527,15.725-14.435C763.069,43.715,773.693,50.434,782.678,48.56z
				"/>
			<path fill="#BCBEC0" d="M235.953,619.279c18.079,11.026,43.133,3.728,54.874,27.727c-2.302,1.906-3.822,5.419-5.811,7.027
				c2.422,1.232,4.793,4.244,6.489,5.221c-4.824,2.167-7.914,7.027-11.679,11.016c33.553,7.455,38.528,29.831,59.672,51.439
				c-1.535-8.64-2.595-18.194-1.577-27.351c2.955,1.133,6.98,0.235,10.326,2.177c-11.511-35.229-33.882-56.712-58.873-81.896
				c-11.814-11.898-19.656-28.332-35.203-37.239c-16.403-9.387-35.824-10.718-52.828-19.081
				C217.273,575.097,216.537,607.444,235.953,619.279z"/>
			<path fill="#BCBEC0" d="M244.765,673.109c0,13.031-6.724,47.393,9.569,50.296c-4.923-13.146-6.009-27.513-9.569-41.013"/>
			<path fill="#BCBEC0" d="M172.846,531.573c-25.524,37.343,10.353,65.159,20.345,96.733c0.256-19.906-12.973-38.758-15.239-57.02
				c1.013,0.026,1.879,0.407,2.61,1.143c-0.084-14.863-15.088-25.55-3.085-40.851"/>
			<path fill="#D8D9DA" d="M726.994,40.317c24.031-3.785,49.063-9.126,73.35-9.752c-2.412,6.865-10.076,11.464-16.711,14.064
				c0.543-0.298,1.785-1.227,2.287-1.702c-12.107,6.943-26.202-2.908-38.967,1.66c0.616,7.659-6.907,12.065-13.997,12.415
				c0.454,1.023,1.117,1.624,1.592,2.788c-11.036,10.828-26.521,10.165-36.205,19.682c-8.593,8.437-3.707,8.865-17.688,9.966
				c-56.148,4.432-106.104,11.104-156.259,38.272c-47.753,25.868-90.912,61.29-121.202,106.736
				c19.844-13.829,65.816,3.367,80.586,18.298c-17.781,4.37-94.916,18.366-99.505,39.374c1.958,0.668,4.234,1.843,6.134,2.73
				c-42.778,14.445-85.185,39.666-99.855,84.099c-2.313,6.996-8.765,31.976-0.052,37.281c6.051,3.691,14.675-5.779,21.676-7.345
				c10.024,12.383,59.275-32.958,69.847-39.228c42.073-24.918,105.311-60.084,155.272-59.181
				c-35.558,4.699-79.735,23.519-108.448,44.798c-18.784,13.929-30.697,33.924-46.307,50.828c0.146-0.376,1.279-2.574,1.66-3.607
				c-9.105,4.218-15.537,11.699-14.487,21.995c-6.494,1.54-13.281-2.631-17.922-2.198c-17.609,1.618-36.659,13.24-51.376,22.135
				c-10.775,6.515-80.199,62.188-46.594,68.98c-16.142,32.175,52.081,28.687,66.694,17.839
				c-9.684,18.737-35.464,30.577-54.968,19.76c-1.331,3.012-3.994,4.484-5.054,8.175c-5.68-8.792-16.654-12.263-27.027-13.333
				c3.044,13.48,21.258,29.011,32.123,36.884c14.936,10.838,32.645,11.846,50.275,11.282c-2.026,3.279-3.357,10.989-4.145,12.389
				c2.026-2.141,5.231-3.785,7.455-5.79c2.245,5.247-0.318,13.908,2.354,19.071c4.401,8.546,17.019,15.871,24.871,20.93
				c9.026,5.811,21.681,17.035,26.5,0.251c0.559,1.138,3.722,4.088,4.589,6.547c20.747-8.196,6.233-45.576-7.408-33.245
				c-38.22-74.926,46.777-149.096,108.845-183.792c-7.784,8.844-20.392,16.419-22.668,28.933c1.216,0.11,2.396,0.36,3.56,0.741
				c-10.859,12.336-35.73,38.847-15.672,53.647c10.259,7.575,50.797,3.409,51.559-11.543c7.278,3.331,6.395,2.12,12.937,1.921
				c10.196,10.003,30.133-2.156,25.832-16.231c-1.822,0-4.187-0.057-6.056-0.224c20.021-1.462,36.602-41.953,11.736-35.333
				c20.95-12.576,21.493-24.506,29.162-45.602c-18.35-3.435-45.78,3.279-62.465,8.019c-0.491-1.639-1.77-4.438-2.167-5.878
				c-3.378,2.762-9.857,5.132-13.02,8.812c4.119-11.585,23.399-27.44,31.642-37.046c10.979-12.801,15.505-11.553,32.368-18.283
				c14.049-5.612,25.821-14.827,38.998-21.509c4.887-2.485,5.957-4.103,12.002-6.39c5.529-2.088,12.697-2.396,18.371-4.464
				c-4.13,8.108-19.405,34.388-16.857,41.588c-22.845,10.76-27.805,20.804-29.303,46.349c-0.282,4.866,1.441,11.616-0.005,16.231
				c-2.563,8.186-7.163,8.16-11.699,15.735c-4.986,8.306-8.713,21.702-10.963,31.204c-3.002,12.639-4.954,19.087-9.872,29.528
				c-4.699,9.977-3.858,24.48-9.235,32.587c-8.896,13.407-18.977,6.489-28.515,2.835c-4.845-1.848,0.392-10.483-8.546-10.013
				c-7.121,0.376-10.253,7.512-9.679,13.281c-11.224-4.646-23.284,13.85-29.465,22.386c5.623,12.248-24.876,23.879-24.13,41.175
				c-5.064-10.305-8.144-24.714-11.48-36.586c-11.203,16.763-16.544,38.069-11.203,57.537c3.153,11.475,11.156,19.911,2.443,32.436
				c-7.993,11.501-16.643,8.776-30.113,11.532c-13.36,2.741-24.198,11.287-36.779,13.626
				c-15.354-28.666-37.865-51.674-58.346-76.159c-20.345-24.323-49.424-46.714-81.024-53.182
				c-0.945,9.736,5.116,16.466,6.823,25.278c1.608,8.348-7.486,11.256,4.49,22.668c14.9,14.226,39.88,8.52,55.668,20.789
				c17.875,13.903,2.49,31.392,13.876,42.261c14.592,13.934,33.73,14.581,43.206,37.004c-10.807-16.194-68.249-11.391-71.053,11.151
				c-6.891-17.343-6.134-41.295-20.303-55.005c-0.527,2.845-2.281,5.696-2.84,8.661c-0.997-4.918-5.236-8.839-6.902-13.161
				c-11.355,6.139-4.62,24.636-16.476,29.836c-5.268-11.428-12.305-28.552-15.552-41.285c-2.955-11.632-0.585-17.74-0.522-30.567
				c0.084-17.233,0.193-57.192-21.88-61.055c12.483-17.583,0.026-31.496,3.331-50.134c2.214-12.519,13.38-26.589,19.849-37.369
				c14.712-24.542,24.422-50.097,34.08-77.02c7.043-19.63,9.006-39.463,20.193-57.432c13.725-22.068,35.866-40.742,53.527-59.865
				c61.087-66.119,126.386-122.471,204.816-168.089c38.941-22.647,80.601-40.585,124.126-52.274
				c21.733-5.842,43.89-10.154,66.224-12.932C712.095,42.619,719.482,41.502,726.994,40.317z"/>
			<path fill="#BCBEC0" d="M193.718,480.525c23.655-45.733,43.18-93.272,60.335-140.889c7.272,19.948-1.326,41.259-9.225,59.687
				c-15.563,36.283-32.034,87.586-62.7,113.684"/>
		</g>
		<g>
			<path fill="#FFFFFF" stroke="#000000" stroke-width="2.7842" d="M337.755,782.539c-2.798,18.455-1.034,42.083-10.681,58.68
				c-5.153,8.875-55.694,40.126-60.846,31.287c-6.307-10.796-5.915-33.219-8.865-46.197c-4.464-19.682-6.181-40.502-0.888-60.183
				c3.649-13.605,4.37-32.206,10.285-44.245c1.9-3.853,23.582-27.126,27.132-26.119c13.448,3.842,39.609,12.524,46.161,26.296
				C346.15,734.874,339.645,769.983,337.755,782.539z"/>
			<path fill="#BCBEC0" d="M268.075,759.161c4.004,9.418-4.918,49.251-11.068,57.824c-1.561-18.465-1.853-51.637,13.386-64.783"/>
			<path fill="#BCBEC0" d="M295.05,831.649c7.685-12.07,12.608-27.048,12.931-37.176c0.799,1.06,3.075,3.101,4.192,4.672
				c7.899-8.228,7.325-22.548,11.929-32.462c6.782-14.649,19.019-26.228,9.428-42.574c-6.943-11.846-29.303-20.909-40.737-10.76
				c-12.107,10.765,6.411,65.655,1.441,85.378c-4.97,19.739-23.994,37.521-26.171,56.696c18.58-2.809,38.539-23.738,52.488-36.064
				c-5.722,3.597-10.133,9.507-10.718,16.367"/>
			<path fill="#D8D9DA" d="M286.634,715.078c-4.735,14.221-15.563,26.677-21.097,41.013c2.036-3.346,4.699-4.077,6.724-6.025
				c14.931,25.92,9.079,60.471-2.161,87.279c16.403-23.133,28.468-87.931,14.226-112.99"/>
		</g>
		<g>
			<path fill="#FFFFFF" stroke="#000000" stroke-width="2.7842" d="M64.726,781.395c7.502,3.211,16.925,1.561,24.412-0.329
				c-0.893,3.686-6.865,12.932-6.949,15.881c-0.245,9.042,12.321,4.944,3.529,16.356c7.909,6.797,6.213,17.322,6.395,27.038
				c5.565-4.385,11.673-4.719,17.797-1.921c4.62-13.892,23.712-16.163,34.394-22.287c-12.785-44.955,48.541-70.275,61.77-107.169
				c7.34-20.465,9.032-68.698-18.946-78.769c13.553,4.871-16.283,58.116-21.243,65.253c-21.436,30.791-61.269,36.174-86.417,62.204
				C77.606,759.583,70.527,783.875,64.726,781.395z"/>
			<path fill="#D8D9DA" d="M101.041,820.211c9.763-1.911,13.229-8.092,9.564-15.604c8.87-8.317,13.469-24.574,20.079-33
				c7.163-9.131,12.827-19.332,19.087-25.644c8.207-8.28,18.794-13.563,25.565-23.717c5.889-8.818,15.902-32.196-4.505-22.981
				c7.544-10.488,13.678-26.041,20.115-36.696c10.948,41.786,0.057,53.433-25.565,81.082
				c-16.863,18.199-35.025,47.288-39.212,71.528c-7.8,3.148-13.093,9.575-18.685,15.704c-3.294-1.336-5.001-3.044-6.797-5.915
				c1.676-2.208,3.153-5.09,4.986-7.069"/>
			<path fill="none" d="M98.713,771.487c1.055,2.866,1.827,5.805,2.334,8.812c3.842-3.007,8.055-7.643,10.775-11.877
				c-4.949-0.078-10.577,0.992-15.437,3.065"/>
		</g>
		<g>
			<g>
				<path fill="#FFFFFF" stroke="#000000" stroke-width="2.7842" d="M776.084,1052.586c17.265-29.042,2.292-60.909,2.652-94.431
					c-8.102,4.975-14.362,2.647-23.075,4.067c-2.14,0.344-5.09-3.43-9.23-2.663c-2.751,0.517-2.073,4.876-4.177,5.435
					c-15.568,4.135-32.864,8.781-49.09,6.202c-17.949-2.851-21.833-14.414-35.573-22.511c-21.347-12.582-52.452-3.613-75.877-0.235
					c-25.273,3.634-31.115,13.589-47.983,28.077c-8.327,7.142-18.935,4.537-26.275,9.173c-10.446,6.594-18.288,22.798-27.868,31.35
					c-10.582,9.449-20.914,14.874-34.159,20.893c-29.883,13.595-60.23,26.385-83.598,50.28
					c-9.83,10.044-17.552,23.284-32.488,23.195c-30.76-0.177-28.552-49.648-34.712-69.857c-4.61-15.062-14.874-57.74-30.274-63.112
					c3.587-24.339-29.423-28.687-35.735-50.071c-8.567-29.074,35.986-61.724,45.007-24.302c3.399,14.08-11.736,22.757-13.099,34.508
					c10.958,3.545,16.247,2.72,24.652-4.177c4.933-4.051,6.186-12.018,10.029-16.837c8.102-10.175,19.05-14.983,28.948-22.725
					c16.842-13.172,51.59-28.667,36.043-52.734c1.326-1.368,3.331-3.994,4.197-4.881c0.371-0.371-26.155,1.128-28.901,1.979
					c-9.298,2.903-18.439,12.984-28.933,7.126c-4.036,10.316-13.542,9.188-20.366,7.006c-1.044,3.367-3.19,6.75-5.017,9.726
					c-1.629-12.096-17.327-21.003-6.662-31.914c-14.868,2.673-14.519-14.806-10.812-14.398c-2.151-0.235-4.223-0.465-6.38-0.626
					c0.814-16.085-1.707-27.163,2.104-43.274c4.746-20.032,14.263-33.543,1.686-50.656c-6.484-8.812-13.198-15.27-17.489-25.404
					c-1.801-4.26-12.086-28.244-10.452-31.653c-3.534,7.377-2.234,18.565-7.298,25.028c-3.691,4.719-19.269,7.617-15.563-1.89
					c-8.311,21.316-29.768,38.325-43.942,55.751c-6.573,8.087-18.037,16.727-22.506,24.125c-6.797,11.277-3.059,21.953-7.941,33.997
					c-2.563-0.266-6.103,1.039-8.645,0.825c6.876,15.724-24.255,35.286-28.134,50.572c-4.824,19.045,4.145,41.008-2.031,59.86
					c27.105,12.503,39.322,27.789,41.541,56.148c1.613,20.763,13.542,47.544-0.23,66.469c6.959-7.993,6.019-19.53,2.031-29.105
					c-6.761,10.018-15.73,15.015-28.792,15.829c2.323,19.4-52.681,5.748-62.094,17.995c-8.416,10.953,10.796,25.894,13.621,41.008
					c2.882,15.521,0.47,32.686-3.56,47.79c-6.427,24.114-32.055,49.742-27.361,76.331c11.84,0.104,21.733,7.559,32.19,12.07
					c15.458,6.672,29.34,8.64,45.895,11.37c27.706,4.579,56.534,14.466,84.512,16.476c58.816,4.224,127.702,3.211,182.753-15.73
					c39.374-13.542,74.159-31.804,113.721-44.146c45.336-14.138,83.922-22.981,99.255-72.452
					c9.679-31.245,26.573-119.391,79.521-97.506c19.546,8.076,32.53,35.49,44.981,51.225c6.536,8.264,14.941,21.493,24.093,26.98
					c10.593,6.338,23.879,2.647,34.383,9.59C753.797,1089.71,766.619,1068.514,776.084,1052.586z"/>
				<path fill="#D8D9DA" d="M66.715,1046.133c-21.598-2.715,10.149,40.596,4.135,55.527c0.251,0.48-2.151-3.983-1.869-3.738
					c2.443,36.283-31.621,60.434-32.535,96.002c11.543-21.702,17.635-41.045,35.072-58.8c-1.979,20.256-17.881,34.587-15.939,56.539
					c11.339-22.042,29.831-102.773,61.88-96.451c-5.095,28.844-21.102,62.611-29.57,91.904
					c13.97-21.091,26.134-97.767,56.753-101.473c-0.835-0.292-1.196-0.903-1.086-1.817c2.584-1.347,6.061-1.519,8.614-2.668
					c4.046,12.858,12.378,0.104,21.446,8.953c10.3,10.045,7.894,40.758,4.813,53.146c7.048-16.356,7.559-35.396,11.313-52.473
					c0.193,1.822-0.183,3.754-0.167,5.597c4.537-1.467,1.895-3.472,7.142-2.386c8.598-20.882,20.935-37.113,33.647-55.046
					c0.966,1.196,2.913,2.986,3.983,4.511c8.437-7.272,24.406-17.964,34.346-7.424c0.804-11.245-9.867-13.14-11.371-24.245
					c4.495-1.462,6.171-4.584,8.51-4.297c-23.629-14.091-41.781-35.704-48.813-65.811c-9.46,7.554,6.531,44.208,5.325,59.505
					c-10.922,0.715-31.188,77.751-39.619,92.969c-7.737-22.501-22.229-15.599-36.717-11.235c-0.292-1.347-0.6-2.683-0.924-4.02
					c-3.55,2.579-8.092,4.286-10.734,8.181c10.676-14.983,29.152-33.548,32.196-47.79c6.254-29.35-18.507-59.27-22.851-85.425
					c23.321,42.783-4.803,96.801-25.879,131.482c-7.34-4.182-16.283-1.034-22.861,2.375c-1.243-7.095-1.968-14.487-4.171-20.877
					c2.584,0.214,5.722-0.465,8.076-0.183c-0.031-13.114,17.223-11.757,25.847-18.34c9.329-7.11,16.638-19.165,13.464-31.653
					c-14.466,28.479-55.594,19.379-78.414,29.46"/>
				<path fill="#D8D9DA" d="M268.587,1062.38c2.454,11.198,5.659,23.462,6.656,34.503c-32.592-0.303-55.031,111.022-46.876,134.275
					c-10.754-10.024-6.458-48.51-27.199-44.109c-8.379,1.78-17.155,19.854-19.765,26.004c8.181-23.817,21.337-46.714,27.017-71.199
					c-4.427,12.295-8.708,25.419-6.766,38.513c27.293,13.965,49.492-85.195,55.151-101.52c2.14,0.7,4.568,0.94,6.662,1.749
					c3.352-7.92,7.883-18.993,5.116-27.502"/>
				<path fill="#D8D9DA" d="M480.711,1159.875c9.789,1.509,6.688-126.266,5.57-138.947c-33.527,13.005-61.228,47.576-92.29,67.482
					c-21.676,13.876-61.974,44.052-88.448,28.207c3.117,15.223-8.651,31.491-25.054,29.695c4.975,23.06,63.039,2.177,78.127-4.803
					c4.197,5.748,5.905,13.052,5.445,19.891c6.442-4.401,12.801-7.68,20.366-8.228c0.042,19.906-15.182,17.061-27.732,22.778
					c-16.763,7.638-34.326,20.48-43.263,37.63c22.752-13.203,48.87-32.723,73.037-16.967c0.548-1.091,0.658-2.203,0.339-3.346
					c14.221-0.324,34.378-15.385,49.382-19.51c12.65-3.477,21.613-4.839,33.908-2.673c-0.073-1.582,0-4.187,0.162-5.821
					c6.74,3.994,16.069-1.373,19.097-3.117C485.258,1162.391,483.677,1160.329,480.711,1159.875z"/>
				<path fill="#D8D9DA" d="M142.937,888.716c-1.556,11.945,12.764,26.192,20.715,11.997c2.955,16.967,33.657,27.685,44.088,13.407
					c1.869,2.965,2.433,7.862,2.532,10.958c-21.117,2.757-8.494,38.502-8.922,53.063c-3.743-13.918-8.202-29.669-18.732-40.241
					c0.439,4.505-0.606,9.319,0.235,13.741c-1.352-3.08-3.211-6.26-4.354-9.324c2.172,12.164,1.801,25.404,1.958,38.309
					c-2.71-36.09-31.423-52.781-60.418-66.344c-9.575-4.479-16.106-1.738-18.747-16.408c-1.582-8.771-2.939-36.738,2.396-44.078
					c0.846-0.245,9.966-2.01,9.162-1.942C95.935,853.273,141.026,903.422,142.937,888.716z"/>
				<path fill="#D8D9DA" d="M238.417,716.659c13.532,19.953,0.329,51.752-11.25,69.027c1.253-1.864,2.245,41.253,2.318,44.307
					c0.747,30.019,14.404,19.948,34.44,32.431c-3.007,0.506-5.027,1.932-8.118,2.777c3.336,6.63-4.871,13.866-7.847,17.693
					c15.056,4.051,32.457,3.112,46.302-4.756c14.211-8.071,32.112-20.919,39.854-35.855c-12.107,6.923-26.761,6.093-38.81,13.579
					c-5.195,3.237-1.869,13.48-13.741,13.057c-5.967-0.214-12.357-11.475-19.076-13.516"/>
				<path fill="none" d="M203.611,705.059c-2.005,7.121-5.523,13.746-9.053,20.021c2.276-0.559,4.297-0.861,6.343-1.169
					c1.133,5.429,3.587,9.648,2.71,15.484c0.005-12.728,1.102-24.422,1.979-36.001c-3.341,2.266-4.657,5.111-6.615,8.624"/>
				<path fill="#BCBEC0" d="M474.467,1120.96c-2.36,14.613-6.489,27.544-10.833,33.188c-0.491-0.543-9.366-7.157-8.985-4.396
					c-1.54-11.219-5.409-22.412-8.102-33.506c1.937,12.843-14.247,27.074,2.819,32.451c-2.673,6.301-9.914,6.03-12.817,10.321
					c-2.099,3.112-0.24,8.979-1.984,11.073c-4.119,4.949-7.586,7.486-12.462,12.018c-5.148,4.793-34.038,19.322-25.806,30.264
					c-12.764-16.967-21.692-9.846-39.551-7.883c-16.2,1.775-31.908-1.791-44.083,14.738c-14.654-17.165-73.47-2.01-81.092,16.304
					c-10.577-10.373-23.743-20.653-37.865-22.887c-11.741-1.858-12.973,5.858-24.84-1.822c-6.677-4.333-13.689-16.508-22.736-15.777
					c-6.985,0.558-10.118,13.146-16.701,14.2c-11.026,1.759-12.467-9.131-20.308-15.114c-19.254-14.701-22.762-0.271-42.527,2.751
					c-7.319,1.122-47.513-6.562-27.758,7.21c1.425,0.992,22.757,3.054,27.889,4.584c11.078,3.31,21.593,7.507,33.114,11.538
					c36.894,12.9,119.098-7.92,132.15,40.998c10.373-27.372,42.825-24.328,66.756-19.713c6.771,1.31,5.993,7.382,14.054,6.145
					c2.281-0.345,8.463-11.052,11.94-12.973c17.228-9.507,39.123-5.659,57.542-12.07c31.6-11,61.452-27.502,92.348-40.126
					c24.198-9.893,48.761-15.839,70.071-32.436c24.213-18.857,23.148-45.936,38.815-70.609c1.686,0.929,3.085,2.135,4.808,3.033
					c6.86-16.403,1.749-32.885,12.65-47.576c6.166,1.159,7.873-0.752,12.989-5.565c-0.632-1.321-1.827-2.427-2.266-4.067
					c27.643-30.013,72.598-9.538,92.588,15.97c0.298-1.321,0.606-2.642,0.914-3.957c14.033-0.339,38.513,18.283,50.301,26.625
					c-1.561-17.233,9.22-27.878,13.798-43.263c2.495-8.379,7.152-36.205-4.704-43.738c-5.414-3.446-22.125,0.861-27.654,1.791
					c-18.893,3.159-32.013,6.886-50.656,0.292c-27.962-9.893-46.453-18.664-76.038-18.549c-45.388,0.177-86.783,23.3-121.735,50.426
					c-15.255,11.851-27.951,23.863-46.14,31.282c-19.546,7.967-40.585,11.308-57.38,25.043
					c-22.584,18.46-29.805,55.057-66.422,53.365c24.861,13.511,56.947-8.687,78.205-22.214c5.941,13.835,5.471-0.329,9.032-0.794
					c-3.299,0.433,8.416-6.312,7.084-5.518c1.394-0.83,7.904,4.991,11.705,2.772c12.942-7.565,18.987-41.89,36.774-36.148
					C477.234,1063.737,478.649,1094.998,474.467,1120.96z"/>
				<path fill="#BCBEC0" d="M243.063,714.341c7.7,8.593,14.346,18.94,18.33,29.815c-17.051,1.342-20.011,26.531-22.903,39.666
					c-5.424,24.568-3.942,46.641-4.709,71.345c1.749-26.667-9.486-51.324-2.892-78.122c5.142-20.883,20.768-42.747,11.767-64.323
					c-1.655,1.044-3.065,2.36-4.244,3.936"/>
				<path fill="#BCBEC0" d="M113.122,904.597c-10.222,17.917,18.387,27.523,25.184,42.308c-3.545-5.283-3.367-10.499-3.952-16.429
					c26.735-1.592,52.478,16.247,80.215,13.631c-34.853-10.478-70.202-14.451-101.447-34.863"/>
				<path fill="#BCBEC0" d="M72.192,1067.193c19.817-10.885,67.252-13.49,65.822-44.558c-9.173,1.853-25.002,8.844-31.809,16.174
					c-4.573,4.923-4.312,11.172-9.267,15.965C90.793,1060.714,79.663,1063.085,72.192,1067.193z"/>
				<path fill="#D8D9DA" d="M120.081,1187.675c1.493,3.205,3.331,6.181,5.513,8.927c3.07-8.917,9.46-16.278,14.55-24.427
					c-10.916,5.607-23.78,10.076-17.74,24.782"/>
			</g>
			<path fill="#D8D9DA" d="M294.105,1176.069c1.932,6.51,2.72,13.318,2.193,20.047c1.916,1.384,8.196,6.411,11.887,9.345
				C307.512,1193.428,300.897,1185.018,294.105,1176.069"/>
		</g>
		<path opacity="0.21" fill="#636466" enable-background="new    " d="M313.745,639.107c39.191,44.568,42.527,91.413,28.437,147.702
			c-5.523,22.088-52.034,141.521-95.344,98.31c-3.581-3.566-4.208-24.474-6.667-30.295c-5.116-12.101-14.665-19.421-15.458-34.044
			c-1.624-30.264,29.105-49.272,27.831-80.429c-0.809-19.703-19.102-37.823-14.931-58.262c1.707-0.345,3.419-0.7,5.137-1.055
			c2.558-23.863-6.181-47.889-17.27-68.375c-10.431-19.275-50.948-64.751-1.284-52.112
			C261.565,570.059,289.443,611.474,313.745,639.107z"/>
		<path opacity="0.21" fill="#636466" enable-background="new    " d="M595.32,866.779c-2.454-10.248-4.119-22.919-10.791-35.725
			c-16.576-31.83-27.706-56.566-37.286-92.541c-8.045,15.98-17.75,53.898-38.22,58.455c10.77,29.732-17.4,69.231-38.095,31.647
			c-12.978-23.582-8.228-54.101-19.431-77.97c-3.994-8.463-15.103-12.728-18.706-20.809c-6.218-13.913-11.167-55.641-11.762-71.919
			c-0.658-17.212,5.915-30.791-0.606-47.596c-6.239-16.038-23.284-26.103-24.051-45.216c-1.906-48.009,47.633-41.379,70.672-68.683
			c10.3-12.201,10.133-36.978,21.525-52.065c13.527-17.938,32.686-25.988,47.236-40.815c12.268-12.509,12.206-32.436,36.44-30.718
			c2.542-9.726,9.549-17.964,12.738-26.27c-4.594,11.934-51.355,12.488-51.904,27.278c-0.987,26.615-38.262,51.126-56.289,67.518
			c-25.388,23.101-52.342,46.38-72.092,74.237c-9.512,13.412-27.121,38.205-24.788,55.433c1.817,13.25,15.886,24.093,19.849,37.192
			c6.134,20.298-4.986,38.941,2.777,59.39c3.106,8.155,10.3,12.686,13.595,21.89c3.571,10.003,1.973,22.84,4.944,33.386
			c6.186,21.942,23.696,38.116,24.824,61.87c1.425,29.664-22.83,61.06-15.187,91.063c8.421,33.083,73.021,15.171,94.713,11.814
			c57.547-8.912,114.159,27.539,170.135,20.877c-17.99,1.629-43.942-7.309-59.854-15.464c1.665-1.906,3.529-4.067,4.782-5.643
			C605.657,894.109,599.392,883.772,595.32,866.779z"/>
		<path opacity="0.21" fill="#636466" enable-background="new    " d="M526.058,968.116c-29.919,17.891-45.942,50.457-75.595,69.967
			c-26.437,17.4-49.669,33.845-71.502,55.031c12.67-12.289,27.403-22.689,44.923-23.2c-0.945,14.774,33.877,27.241,38.325,48.943
			c3.425,16.69-5.283,30.191-12.107,45.315c12.331-8.75,33.543-20.893,45.331-7.805c16.09-14.331,30.64-20.627,52.034-16.33
			c6.714-28.578,34.743-67.644,53.136-89.988c18.497-22.454,38.492-45.806,67.899-32.587c27.257,12.263,34.832,43.493,56.696,60.565
			c26.463,20.668,52.661,8.818,70.228,34.795c6.087,8.995,14.482,19.134,14.858,30.791c0.533,16.716-12.441,19.254-14.148,31.543
			c-4.49,32.373,41.112,34.916,61.254,40.209c23.555,6.192,51.507,25.858,76.644,17.322c8.786-2.981,16.153-15.813,25.445-20.324
			c11.553-5.612,27.554-4.578,40.387-6.729c50.922-8.525,81.886-0.23,130.521,6.192c17.416,2.297,38.586,7.502,55.005,3.007
			c18.022-4.944,34.681-22.193,51.564-31.157c-17.844,0.407-36.44,1.185-54.023-0.548c19.891-7.899,39.729-10.739,54.775-26.578
			c-39.677,4.667-108.986,25.116-134.833-21.765c8.995,0.794,11.678-4.036,17.056-5.878c-7.883-2.24-13.876-8.463-18.068-13.229
			c7.293-2.24,13.057-8.108,18.277-11.668c-35.072-4.197-75.903-2.307-107.399-22.125c-13.835-8.703-32.013-29.282-34.232-46.077
			c-1.363-10.29,5.931-16.664,5.32-27.863c-52.927-0.057-92.99-69.246-145.468-78.623c-76.002-13.584-155.089,5.492-230.684,9.956
			c1.195,2.84,0.935,6.093,1.728,8.901C583.375,958.954,551.952,952.637,526.058,968.116z"/>
		<g>
			<path fill="#FFFFFF" stroke="#000000" stroke-width="2.7842" d="M64.246,1398.813c3.075,16.508,17.625,28.536,20.434,44.6
				c6.87,39.364-22.945,71.251-25.012,108.537c-3.044,54.848,44.72,69.612,90.489,69.612c22.558,0,41.326-4.291,63.159-6.834
				c21.848-2.542,43.441-0.313,64.464-2.448c20.48-2.083,38.56-12.791,58.534-14.545c18.977-1.66,38.408-5.278,57.479-6.39
				c25.67-1.498,50.562-1.467,76.221-4.651c43.316-5.382,86.151-14.665,127.039-30.107c45.978-17.369,98.806-67.67,97.85-120.654
				c-0.564-31.966,9.507-63.379,17.338-95.287c18.23-74.331,36.774-149.227,78.189-213.863
				c26.364-41.133,44.516-77.631,46.521-127.101c1.9-47.027-66.709-63.07-86.401-20.825c-7.857,16.847,2.929,26.756,5.252,41.708
				c3.279,21.138-8.076,32.373-22.741,44.657c-23.754,19.88-67.691,46.672-100.34,38.466c-12.885-3.237-24.109-17.875-31.862-27.382
				c-20.282-24.876-22.647-53.882-35.939-81.139c-7.126-14.607-21.102-31.381-39.478-26.536
				c-18.831,4.965-23.764,30.629-26.735,47.273c-7.33,41.118-13.908,81.384-9.982,122.737c3.472,36.602,5.069,73.188,6.755,109.889
				c0.987,21.666,3.2,40.115-13.976,56.153c-28.463,26.552-76.806,25.592-112.786,32.002
				c-56.007,9.971-111.158,21.029-168.271,25.064c-21.18,1.498-40.418,4.469-61.562,2.746c-19.269-1.561-46.772-6.301-63.833,5.539
				C64.043,1377.695,61.688,1385.067,64.246,1398.813z"/>
			<path fill="#D8D9DA" d="M148.063,1390.35c-16.361,19.593-25.028,1.316-41.833,2.229c-10.415,0.558-28.233,22.783-39.411,7.048
				c21.138,29.726,22.376,55.48,12.049,90.071c-13.61,45.587-29.423,76.487,14.733,108.986
				c-8.395-10.337-18.512-25.55-17.745-39.781c0.673-12.399,14.268-31.945,25.743-14.686c-0.355-13.25-5.121-52.948,13.407-50.635
				c-1.008-18.293,9.517-23.858-0.23-38.638c-8.311-12.618-33.642-32.389-22.783-51.272c14.299,1.629,49.121,22.12,32.885,40.899
				c7.763,5.555,14.012,12.921,21.321,19.008c2.532-7.168,1.415-16.675,1.984-24.934c3.153-0.496,5.884-2.751,8.698-3.294
				C144.012,1419.126,135.085,1412.423,148.063,1390.35z"/>
			<path fill="#D8D9DA" d="M161.767,1377.93c-3.263,3.978-6.4,8.061-9.397,12.242c1.765,4.516,5.69,10.201,10.034,12.989
				c18.93-9.261,28.066,33.25,31.966,43.54c3.383-25.973-16.649-53.673-34.921-68.777"/>
			<path fill="#D8D9DA" d="M215.127,1377.93c-19.692,16.722-16.737,14.085,0.115,29.413c1.368-15.855,19.979-18.497,31.6-24.996
				c-10.932,8.484-28.238,2.286-36.351-6.735"/>
			<path fill="#D8D9DA" d="M347.382,1366.335c14.707-1.958,23.002-11.277,34.749-16.309c9.909-4.239,22.762-4.098,33.057-7.361
				c22.558-7.147,44.73-10.211,63.514-24.824c-24.433,37.86-58.079,59.395-99.103,77.657c3.957-2.986,12.519-11.741,11-17.552
				c-3.524-13.48-14.32-4.088-19.369-4.025c-15.641,0.193-32.681,8.755-44.015-7.189c7.283-0.496,15.093-1.31,22.49-2.715"/>
			<path fill="#D8D9DA" d="M196.777,1566.275c10.222-11.271,7.68-17.635,26.86-21.493c-28.343,33.574,3.122,49.721,37.594,32.749
				c8.557-4.218,12.843-15.036,19.285-18.272c9.601-4.834,35.526-6.025,45.973-4.631c-9.726,23.493,49.079,15.714,59.865,13.093
				c13.292-3.216,34.059-22.605,46.484-17.755c2.088,9.627,22.704,6.427,30.603,1.561c14.56-8.953,10.52-34.091,20.47-44.114
				c5.195-5.236,32.77-18.8,39.619-18.434c14.988,0.804,7.204,0,14.696,13.798c4.511,8.337,8.781,27.032,19.682,23.926
				c17.129,25.471,65.837-17.374,79.453-30.436c22.553-21.614,42.094-46.291,39.035-78.696
				c-11.308,13.438-18.977,31.433-29.413,45.675c5.283-17.244-0.653-35.85-2.73-52.817c-2.005-16.351-0.266-18.773,5.273-32.895
				c2.412-6.134,3.331-17.823,6.395-22.96c3.31-5.539,9.167-4.25,13.412-9.434c14.252-17.4,27.774-40.522,35.537-61.447
				c-2.083,2.746-3.08,5.268-4.568,8.061c2.605,1.007,4.537-0.031,6.771,1.665c4.866-10.577,23.482-40.152,3.106-43.107
				c31.141-21.629,28.907-83.06,47.32-113.789c16.549-27.617,52.091-64.125,35.432-99.422c-14.404,7.45-13.041,27.523-18.622,41.405
				c-10.405,25.842-23.869,36.33-43.216,53.308c0.454-2.208,0.861-4.401,1.169-6.39c-33.224-15.912-82.737,22.496-119.234,11.84
				c45.738-14.816,92.838-28.056,125.958-65.722c11.543-13.12,41.953-39.807,26.928-58.064c2.146-0.653,8.222-1.958,10.446-1.921
				c0.031,2.422-0.104,4.448-0.016,6.51c8.515-3.096,41.154-19.724,31.131-32.937c-10.243-13.5-37.489,10.671-44.412,14.43
				c-14.889-42.141,66.986-43.284,71.121,9.46c3.08,39.39-37.228,81.035-55.292,113.575
				c-31.413,56.539-48.228,118.018-62.522,180.529c-8.604,37.646-16.664,75.746-23.905,113.737
				c-5.247,27.565-9.355,52.044-24.934,74.775c-51.334,74.9-146.36,69.534-227.776,81.718
				c-58.565,8.755-118.863,13.934-176.577,25.017c-49.481,9.496-100.842,15.792-150.683,5.362
				C148.779,1615.568,174.715,1590.587,196.777,1566.275z"/>
			<path fill="#D8D9DA" d="M505.154,1292.082c-7.633,36.08-28.244,67.007-55.553,91.34c10.013-3.091,45.55-9.016,46.62-19.217
				c14.78,5.111,21.801,24.166,25.341,38.351c-0.444-14.999,0.371-28.682,2.61-43.065c12.89,8.985,18.977,41.112,22.793,56.075
				c5.362,21.008,9.763,41.901,17.995,61.755c3.947-41.843-7.439-88.265-14.038-129.607c-6.171-38.586-0.522-78.973-3.931-118.164
				c-3.252-37.265-9.47-74.671-9.345-111.993c0.031-12.321-5.523-61.844,8.859-59.019c-18.643-19.504,4.735-33.762,22.757-26.62
				c-7.633-14.738-19.875-57.27-40.898-55.485c-23.289,1.968-26.14,65.409-28.379,81.364
				C489.153,1135.385,521.343,1215.563,505.154,1292.082z"/>
			<path fill="#BCBEC0" d="M813.751,967.244c-14.597-4.26-23.686-11.94-39.682-4.662c-5.821,2.642-12.832,7.048-15.458,13.224
				c-0.867,2.036-1.117,17.625-0.084,16.722c5.529-4.876,22.846-20.23,30.729-17.996c9.914,2.804,12.117,36.529,12.9,46.594
				c1.796,23.242-1.196,45.232-8.708,66.892c-15.641,45.08-37.484,89.988-55.918,133.737c27.763-49.93,60.022-103.384,79.192-157
				c7.366-20.616,33.219-113.794-19.217-102.147"/>
			<path fill="#BCBEC0" d="M544.163,979.262c-9.392-2.208-17.014,3.978-23.467,9.909c-15.672,14.404-28.009,44.104-24.213,65.096
				c13.292-18.089,39.818-57.495,66.239-51.011C557.225,996.25,553.983,981.57,544.163,979.262z"/>
			
				<linearGradient id="SVGID_1_" gradientUnits="userSpaceOnUse" x1="178.9013" y1="142.9785" x2="210.4916" y2="142.9785" gradientTransform="matrix(1 0 0 -1 0 1644.9254)">
				<stop  offset="0" style="stop-color:#FFFFFF"/>
				<stop  offset="0.1046" style="stop-color:#FAFAFA"/>
				<stop  offset="0.2282" style="stop-color:#ECECEC"/>
				<stop  offset="0.3616" style="stop-color:#D4D4D4"/>
				<stop  offset="0.5018" style="stop-color:#B2B2B2"/>
				<stop  offset="0.6474" style="stop-color:#888888"/>
				<stop  offset="0.7976" style="stop-color:#535353"/>
				<stop  offset="0.9487" style="stop-color:#161616"/>
				<stop  offset="1" style="stop-color:#000000"/>
			</linearGradient>
			<path fill="url(#SVGID_1_)" d="M210.492,1496.261c-1.368,19.588-40.69,17.755-29.632,2.72c6.27-8.52,38.753-8.927,24.991,8.88"/>
			<path fill="#BCBEC0" d="M65.087,1384.117c-2.506,8.849,3.033,11.783,7.768,5.268c7.695,19.729,28.99-3.931,39.927-8.16
				c4.5,23.817,34.054,7.867,43.571-1.932c13.448,8.598,23.54,13.25,38.674,6.75c5.132-2.203,10.17-8.567,15.463-9.856
				c4.563-1.112,17.625,0.433,23.206,0.11c14.122-0.809,26.087-2.803,38.706-4.902c4.84-0.809,11.511-0.005,16.941-1.122
				c6.51-1.342,11.564-8.536,17.066-9.512c4.887-0.867,9.663,3.336,15.458,3.247c7.721-0.12,12.89-3.534,20.11-5.064
				c6.27-1.321,12.399,0.094,18.549-1.086c8.431-1.613,17.186-7.805,25.101-10.441c18.512-6.15,38.178-9.47,56.889-16.32
				c9.251-3.383,29.1-6.181,34.414-14.623c1.592-2.532,2.187-3.498,2.506-6.375c-11.679-1.242-25.017-0.292-36.68-0.005
				c-27.309,0.668-51.486,15.933-77.86,21.509c-36.054,7.617-72.76,14.393-109.21,19.995
				c-36.325,5.576-72.426,16.189-109.137,18.669c-20.987,1.425-41.885,1.723-62.888,3.018c-18.867,1.159-17.526,7.225-18.575,20.115
				"/>
			<path fill="#BCBEC0" d="M116.134,1606.865c9.945,13.323,45.242,2.292,58.816,1.551c19.833-1.086,39.254-4.432,59.134-4.646
				c35.036-0.392,68.406-13.151,103.29-13.761c32.906-0.579,68.975-2.031,101.776-5.925c39.598-4.699,77.808-11.496,116.9-19.786
				c37.897-8.04,78.158-19.849,97.871-56.383c-9.945,18.45-52.681,33.631-71.288,39.99c-28.124,9.601-59.338,10.457-88.683,12.911
				c-57.276,4.756-116.31,8.64-172.495,21.264c-66.01,14.837-131.309,29.434-199.13,29.434"/>
		</g>
		<g>
			<g>
				<path fill="#FFFFFF" stroke="#000000" stroke-width="4.6406" d="M95.638,1342.111c1.457-10.901-0.428-22.783-6.312-36.169
					c-9.147-20.773-38.205-36.278-45.853-6.301c-4.083,16.027,0.924,33.532,5.659,48.844c3.832,12.389,7.356,31.413,19.113,38.513
					C83.505,1373.044,93.435,1358.713,95.638,1342.111z"/>
				<path fill="#FFFFFF" stroke="#000000" stroke-width="4.6406" d="M97.47,1377.612c2.584-0.517,5.022-1.122,6.317-2.401
					c4.537-4.495,4.265-15.448,3.153-23.582c-2.814-20.282-15.317-53.986-29.784-69.361c-20.517,4.176-24.798,33.851-22.84,50.577
					c1.284,10.932,4.928,21.457,9.992,31.204c4.203,8.113,14.378,17.275,15.166,25.931c3.059-3.341,6.447-7.789,10.373-10.206
					C91.696,1378.651,94.667,1378.176,97.47,1377.612z"/>
				<path fill="#FFFFFF" stroke="#000000" stroke-width="4.6406" d="M108.313,1306.783c-5.262-7.371-17.171-20.799-26.296-18.491
					c-6.604,1.671-14.284,14.847-15.417,21.102c-2.203,12.122,0.251,25.106,1.665,37.187c1.399,11.846,3.842,24.887,8.765,36.08
					c4.855,11.042,6.87,12.034,17.416,6.108c19.348-10.875,26.239-25.195,24.777-47.649
					C118.342,1327.661,115.883,1317.392,108.313,1306.783z"/>
				<path fill="#FFFFFF" stroke="#000000" stroke-width="4.6406" d="M122.326,1292.86c-28.672,1.128-13.474,119.411,20.105,92.885
					c19.556-15.448,18.497-38.492,15.808-60.356c-1.765-14.346-17.682-46.082-37.453-30.99"/>
				<path fill="#FFFFFF" stroke="#000000" stroke-width="4.6406" d="M202.765,1317.606c-1.321-23.378-38.779-36.216-48.839-12.67
					c-6.494,15.182-2.971,41.384,3.545,55.986c2.882,6.427,16.226,24.678,22.125,27.993c8.149,4.584,18.491-3.456,24.406-10.901
					c7.251-9.167,4.004-17.547,1.42-27.622C202.551,1339.204,203.412,1329.055,202.765,1317.606z"/>
				<path fill="#FFFFFF" stroke="#000000" stroke-width="4.6406" d="M300.506,1314.735c-5.952-21.838-16.643-20.319-35.218-17.578
					c-16.549,2.433-42.089-4.37-54.383,9.596c-9.371,10.655-9.883,27.168-6.547,40.246c3.472,13.673,6.004,24.923,20.919,28.176
					c14.973,3.263,26.985-7.231,39.322-8.102c15.756-1.133,22.156,2.876,35.526-8.003
					C316.204,1345.975,305.194,1331.911,300.506,1314.735z"/>
				<path fill="#FFFFFF" stroke="#000000" stroke-width="4.6406" d="M338.026,1357.199c12.415-3.164,25.315-8.494,36.435-9.867
					c12.665-1.556,28.776-5.32,30.671-20.528c1.002-8.176-3.367-34.32-10.53-40.209c-11.699-9.632-30.128,0.172-43.681,0.083
					c-15.135-0.115-44.062,2.031-48.468,21.19c-2.224,9.679,2.266,17.479,5.873,25.957c3.299,7.758,3.78,17.693,7.633,25.283
					C322.751,1360.295,330.284,1359.167,338.026,1357.199z"/>
				<path fill="#FFFFFF" stroke="#000000" stroke-width="4.6406" d="M410.374,1328.094c5.231,9.251,15.286,7.257,25.539,3.138
					c11.047-4.438,24.036-7.867,34.493-12.389c21.06-9.115,24.694-42.71,8.008-56.994c-14.268-12.211-26.75,2.036-41.159,4.579
					c-16.048,2.824-26.777-5.189-31.924,12.916C401.013,1294.515,402.543,1314.223,410.374,1328.094z"/>
			</g>
			<g>
				<path fill="#FFFFFF" stroke="#000000" stroke-width="4.6406" d="M56.937,1256.906c3.905-11.412,19.285-64.141-11.611-56.513
					c-14.566,3.592-22.36,44.48-22.903,56.451c-0.47,10.353,2.913,19.844,2.396,30.144
					C41.014,1286.836,52.171,1270.85,56.937,1256.906z"/>
				<path fill="#FFFFFF" stroke="#000000" stroke-width="4.6406" d="M44.59,1229.356c-7.956,18.246-14.691,50.593-4.276,67.983
					c16.983-7.533,30.937-15.051,35.652-33.835c3.816-15.234,14.905-36.158,6.615-51.977
					C68.574,1184.814,51.022,1214.608,44.59,1229.356z"/>
				<path fill="#FFFFFF" stroke="#000000" stroke-width="4.6406" d="M69.691,1238.696c-4.49,19.776-11.266,55.386,13.401,65.488
					c24.845,10.165,41.144-35.876,45.075-53.094c1.906-8.39,4.782-17.855,2.313-26.296c-4.49-15.276-21.739-35.787-38.58-26.453
					C79.329,1205.31,72.662,1225.634,69.691,1238.696z"/>
				<path fill="#FFFFFF" stroke="#000000" stroke-width="4.6406" d="M184.195,1244.909c-0.068-16.194-14.66-37.463-33.188-35.093
					c-16.335,2.094-22.47,23.931-27.179,36.216c-3.618,9.455-9.173,20.726-9.277,31.36c-0.11,11.626,7.392,22.193,16.706,29.46
					c10.008,7.805,18.789,5.795,29.731-0.042C183.146,1295.016,184.289,1268.036,184.195,1244.909z"/>
				<path fill="#FFFFFF" stroke="#000000" stroke-width="4.6406" d="M232.528,1254.186c-3.393-19.985-23.018-45.075-41.943-22.088
					c-6.688,8.118-7.753,21.274-10.723,31.021c-2.287,7.471-14.388,44.887,5.487,32.979c7.988,18.841,25.445,11.725,37.552,5.142
					C238.73,1309.342,233.864,1262.079,232.528,1254.186z"/>
				<path fill="#FFFFFF" stroke="#000000" stroke-width="4.6406" d="M314.126,1232.536c-7.852-16.56-41.838-11.705-55.203-7.22
					c-19.363,6.5-17.771,23.592-22.47,41.206c-3.205,11.987-5.847,29.46,5.325,37.155c13.621,9.387,21.577-5.163,33.715-4.756
					c12.091,0.407,20.287,14.79,33.73,6.035c12.65-8.249,9.799-18.653,8.343-31.01
					C316.162,1262.032,319.263,1243.363,314.126,1232.536z"/>
				<path fill="#FFFFFF" stroke="#000000" stroke-width="4.6406" d="M318.767,1249.545c0.042,10.802-4.37,31.585,1.086,40.298
					c5.372,8.572,26.223,11.976,34.101,8.812c4.751-1.905,6.369-8.484,11.569-10.092c6.364-1.973,11.981,1.519,18.215,1.54
					c28.802,0.104,19.687-55.245,10.828-73.12c-7.497-15.135-20.22-7.058-33.992-3.018c-8.431,2.469-20.595-1.258-28.849,3.028
					C320.897,1222.622,318.726,1238.054,318.767,1249.545z"/>
				<path fill="#FFFFFF" stroke="#000000" stroke-width="4.6406" d="M402.214,1231.33c1.498,9.073,3.769,18.163,7.439,26.333
					c10.535,23.404,24.333,14.926,42.183,3.837c13.057-8.108,36.299-2.939,40.256-22.783c2.12-10.608-5.675-15.599-10.901-23.206
					c-5.706-8.311-8.541-15.453-7.972-26.025c-10.149-3.983-21.671-1.008-31.042,2.401
					C422.527,1199.03,397.923,1205.195,402.214,1231.33z"/>
			</g>
		</g>
		<g>
			<path fill="#FFFFFF" stroke="#000000" stroke-width="2.7842" d="M453.047,811.289c4.229-30.849,22.37-60.387-11.266-84.376
				c-0.783-15.37-0.193-74.587-15.072-85.467c-4.887,8.875-5.424,20.58-5.967,29.46c-11.047-3.466-21.791-3.2-26.171-13.845
				c-8.687,0.167-14.472,5.429-18.126,14.012c-1.436-2.673-5.033-6.625-6.087-8.734c-0.167,1.587-3.555,8.264-3.738,12.509
				c-4.573-4.083-11.183-5.518-15.667-10.969c7.476,9.073,3.195,73.11,2.391,86.678c-1.806,30.603-10.744,65.409-25.55,92.431
				c-8.792,16.069-20.653,29.382-37.202,37.046c-12.702,5.873-11.219,4.766-25.513,5.497c-11.125,0.574-14.633-12.66-24.213,3.952
				c0.287,2.188,1.676,3.012,2.339,5.398c-13.078,2.375-31.245,19.003-15.625,31.632c0.517,2.542-3.044,2.182-2.187,4.646
				c3.19,2.443,4.975,2.673,8.457,4.396c-0.773,2.501-2.605,5.367-2.36,8.066c16.482,12.639,43.765,33.276,37.124,55.845
				c1.812,1.352,6.26,3.169,8.442,4.417c0.402,2.856-3.19,2.365-3.028,5.482c0.533,0.501,6.134,3.529,6.139,3.54
				c-4.391,19.489,12.587,69.977,19.076,89.2c6.092,18.006,3.044,24.255,27.789,21.634c34.101-3.618,59.776-35.845,81.296-58.591
				c12.978-13.73,26.991-13.871,46.229-24.078c19.64-10.42,24.568-23.232,38.607-35.725c13.255-11.793,33.146-9.742,43.911-20.026
				c-4.056-0.459-9.575-3.665-14.059-4.401c2.668-3.258,3.247-9.126,4.704-11.308c-20.982,2.96-14.31-19.598-33.161-16.476
				c-0.355-3.498-1.196-7.956-0.997-11.381c-6.615-6.338-5.21-4.13-6.124-12.122c-3.806-0.762-6.338-3.947-11.444-4.333
				c1.504-10.875,3.618-23.08,5.32-33.115c-0.814,4.803-34.32,2.527-38.403,1.378C443.692,866.298,449.325,838.394,453.047,811.289z
				"/>
			<path fill="#D8D9DA" d="M409.356,713.48c3.117,29.262,28.834,62.888,10.786,92.724c-2.469-25.278-5.007-34.456-25.179-50.885
				c-3.592,1.937-7.372,0.512-10.394-2.668c-0.329,2.897-2.104,5.873-2.24,8.656c-7.372-18.001-4.897-37.505-6.04-56.529
				c-9.538,1.373-11.01-10.514-7.659-16.863c-4.49-1.545-9.079-5.215-12.023-8.035c5.492,27.643,6.86,66.547,1.263,94.269
				c-4.531,22.48-9.82,44.339-18.486,64.804c-10.259,24.245-24.375,43.697-45.78,59.776c-15.954,11.997-49.596,15.119-58.93,29.335
				c-0.031,0.329,4.088,3.905,4.589,4.641c-2.062,2.339-4.693,1.984-5.503,5.414c9.272,9.178,23.613,13.537,33.271,22.428
				c-1.295,1.008-2.569,2.036-3.832,3.08c16.508,8.447,23.623,37.662,27.539,54.31c3.665,15.542,12.342,43.509,12.154,61.697
				c6.928-11.846,9.961-30.207-2.71-38.815c1.869-1.133,5.69-1.096,7.836-1.07c0.031-3.32-0.271-8.259,0.898-11.438
				c13.548,0.585,18.935,16.403,33.574,20.402c23.78,6.505,14.367-2.892,30.948-14.915c5.811-4.213,13.861,0.344,18.622-3.341
				c6.307-4.887,6.286-13.313,11.934-18.089c14.545-12.315,44.485-18.304,49.309-36.738c-13.297,9.877-33.746,26.322-51.486,23.822
				c-0.381-1.728-0.736-3.456-1.075-5.189c-23.54,2.871-59.494,25.451-79.442,1.953c-5.779-6.818-3.018-23.864-10.441-32.801
				c-6.531-7.847-17.014-10.352-22.731-19.118c6.521-7.288,13.741-11.955,22.804-15.072c14.111,11.82,22.48-4.944,4.103-7.027
				c-0.548-3.696,0.642-8.165,2.281-11.464c-1.556-0.705-3.127-0.809-4.709-0.292c13.568-12.942,26.228-35.025,33.673-52.446
				c1.279,1.222,3.801,3.524,5.508,5.508c8.531-3.524,11.485-11.083,9.742-20.762c10.791-3.091,18.622-10.922,21.713-21.718
				c10.384,3.346,20.742,2.224,26.625-6.406c6.301,10.499,8.891,21.744,10.42,33.647c11.746-14.127,17.802-41.869,18.11-60.006
				c0.282-15.954-4.923-23.409-11.256-37.275c-7.283-15.949-6.385-35.182-7.382-52.394c-1.102-18.925-4.119-20.924-21.378-30.629
				c1.634,7.622,8.593,14.195,10.624,22.663C411.021,699.008,408.541,705.821,409.356,713.48z"/>
			<path fill="#D8D9DA" d="M347.601,1083.268c16.398-1.937,35.819-23.18,49.727-31.491c17.312-10.342,37.787-13.532,54.634-24.573
				c6.782-4.453,14.268-9.063,20.668-14.044c6.562-5.106,7.591-11.893,11.752-16.675c4.276-4.918,20.434-9.115,27.048-6.661
				c-9.006,4.38-24.318,7.507-31.188,14.806c-3.545,3.754-4.072,10.368-6.62,15.056c-8.833,16.247-20.48,19.003-36.753,23.529
				c-15.557,4.333-32.686,14.096-43.295,26.651c-21.41,25.341-37.077,46.13-73.856,46.213c8.332-5.252,16.476-6.635,23.101-13.991
				C346.452,1098.073,357.75,1082.072,347.601,1083.268z"/>
			<path fill="#BCBEC0" d="M425.08,657.358c-4.558,9.34-1.556,21.859-0.261,31.726c1.446,11.016-1.206,21.676-1.89,32.477
				c-1.446,22.945,16.231,35.302,21.754,55.688c7.361,27.257-44.506,123.118-0.329,135.893c-3.957-7.46,1.942-12.514,8.985-15.015
				c-20.021,7.095-11.371-24.887-10.06-35.391c3.117-24.934,7.131-49.7,10.666-74.577c1.624-11.444,5.487-24.239,2.443-35.756
				c-1.791-6.802-19.29-20.272-19.301-20.261c2.814-2.756-0.167-33.109-0.209-38.356c-0.089-13.636-0.788-29.256-8.875-40.763
				C426.803,654.367,425.832,655.818,425.08,657.358z"/>
			<path fill="none" stroke="#000000" stroke-width="4.6406" d="M422.935,675.15c7.81,24.041-5.163,40.199,3.775,61.186
				c9.094,21.337,21.467,23.373,20.976,50.249c-0.715,39.379-26.343,67.899-18.043,107.691c4.323-0.381,3.717,1.812,5.659,3.623"/>
			<path fill="#D8D9DA" d="M444.59,930.381c4.145,3.994,9.517,5.518,15.108,4.714c-1.942-0.663-3.827-2.276-5.706-3.085
				c3.879-8.614,14.8-15.396,16.69-24.709c-13.756,6.239-30.008,18.34-45.774,12.159c8.003,4.98,12.509,9.679,22.778,9.376"/>
			<path fill="#BCBEC0" d="M246.592,936.573c-2.015,2.365-0.219,4.631-3.279,6.145c5.309,7.633,17.917,13.151,25.127,21.076
				c-3.038-2.506-3.305-5.852-4.636-8.421c4.37-0.407,8.739-1.107,13.078-1.692c-0.736-0.214-0.872-0.642-0.402-1.295
				c21.123-4.036,46.213,6.923,62.36,19.228c-9.037-14.158-30.525-18.857-45.895-22.663c-13.13-3.258-33.412-0.277-44.814-7.732"/>
		</g>
		<g>
			<path fill="#FFFFFF" stroke="#000000" stroke-width="2.7842" d="M827.199,972.481c6.495,8.583,11.219,25.038,20.434,16.925
				c-2.991,10.911-12.733,21.848-17.327,34.242c-5.56,14.983-9.079,29.136-10.269,44.631c23.493-20.846,22.647,29.93,19.181,40.763
				c4.265-0.637,10.488,1.749,14.754,1.169c-11.339,36.56-41.232,62.919-28.379,106.715c16.273-35.787,52.828-80.481,81.29-107.722
				c7.173,4.552,16.022,5.033,24.292,1.524c1.295,1.801,0.752,5.55,1.143,7.779c13.25,5.174,18.987,60.951,24.516,77.239
				c21.525-1.509,43.154,4.981,64.584-2.48c9.935-3.451,15.714-10.707,24.767-14.847c9.319-4.26,19.353-3.132,27.915-6.802
				c42.527-18.246,52.614-68.703,104.559-62.512c-2.401-10.645,1.133-20.893,11.6-24.281c-2.307-2.266-3.55-3.701-5.325-6.26
				c8.478-8.478,25.461-8.494,32.159-15.239c10.342-10.441,3.858-26.891,19.666-31.005c-1.331-7.847,19.113-22.24,26.589-30.327
				c5.607-6.066,13.224-12.242,17.019-20.016c5.007-10.285,1.89-12.128,3.795-20.674c4.777-21.358,15.876-36.617,15.698-55.824
				c-0.12-12.039-6.207-32.096-12.999-43.002c-18.951,9.402-40.663,4.693-61.327,5.795c-24.641,1.316-24.057,9.815-39.76,18.084
				c2.777-4.73,3.592-12.409,8.353-17.244c-6.359-6.907-5.529-14.513,0.167-22.015c-21.566-1.885-14.294,21.812-9.376,33.015
				c-3.32-1.002-8.421,0.037-12.044-1.237c-2.866,6.463-9.533,10.775-13.02,16.69c8.322-14.106-23.822-20.381-25.101-21.733
				c-7.518-7.899-8.619-20.789-18.716-27.628c7.873-5.649,7.518-11.318,2.443-18.763c7.194-11.705,10.112-45.44-9.517-40.742
				c11.981-8.87,7.418-20.021-0.684-29.194c14.059-5.873,8.337-24.412,11.673-37.192c-10.895-2.464-26.62-7.883-29.846-19.797
				c-4.385-16.205,19.462-21.499,6.646-35.96c2.146,0.971,8.369,1.227,10.681,2.234c9.178-39.536-30.676-30.535-49.183-13.062
				c5.743-18.063-2.203-63.807-30.081-45.634c16.408-10.697-35.025-46.578-42.767-47.372c1.284-15.354-10.358-21.097-22.313-11.485
				c-4.871-11.036-17.275-8.875-27.983-12.681c1.295-2.772,1.451-5.711,2.318-8.202c-5.362,2.84-12.159,2.078-17.865,4.49
				c7.737-27.68-23.211-4.438-30.551-3.952c-11.407,0.757-22.517-7.178-34.258-14.085c1.164-2.715,1.368-5.649,2.161-8.024
				c-11.287,3.853-29.22,3.524-31.178-12.608c-2.093,2.699-8.948,6.092-10.984,8.666c-0.423-1.785-0.835-3.576-1.227-5.362
				c-1.968,0.794-9.34,2.24-12.065,2.349c-0.914-2.95-5.033-7.575-5.727-9.59c-2.464,3.373-10.222,7.319-12.148,9.737
				c-0.057-5.377-3.252-7.539-4.182-11.068c-4.521,4.438-10.483,4.62-14.91,8.52c-1.472-2.151-2.12-3.32-3.623-6.275
				c-12.18,5.372-17.578,31.726-27.784,13.067c-12.284,13.537-27.925,16.215-32.88,32.791c-0.36-8.797-2.851-13.412-1.164-21.102
				c-14.9,11.156-35.761,22.913-42.846,38.977c-0.908-2.809-5.184-7.721-6.714-11.136c-10.525,5.273-25.231,11.339-30.932-2.245
				c-20.136,11.397-30.29,19.41-51.663,26.625c16.236,13.459,2.459,19.076-2.725,34.169c-4.772,13.897-3.801,27.951-6.197,40.147
				c-5.92,30.092,8.327,62.987-2.459,92.499c3.55-1.373,7.502-1.295,10.755-2.318c-11.517,22.219-12.154,43.535-17.875,67.581
				c14.55,7.069,13.626,21.347,9.282,33.511c2.788,0.287,5.341,0.454,7.998,1.305c-0.527,14.226,2.548,25.9-0.298,39.531
				c-2.041,9.752-5.544,7.967,3.07,13.777c3.597,2.428,9.825,2.208,13.97,3.503c19.024,5.936,37.234,11.303,56.472,15.161
				c19.635,3.947,39.927,4.599,60.335,4.599c11.96,0,23.926-0.016,35.881,0c7.267,0.01,22.48-3.519,27.784-0.345
				c-13.412-0.177-26.108,3.743-39.703,3.096c-15.881-0.762-32.211-3.581-48.03-5.466c-23.89-2.845-47.534-1.817-69.904-12.331
				c-19.891-9.35-40.444-11.292-63.425-9.742c-15.004,1.013-29.909,6.406-44.829,5.79c-7.335-0.308-26.014-7.46-28.4,4.484
				c-1.269,6.374,15.761,22.485,14.023,26.876c-1.222,3.101-3.033,6.166-5.367,8.604c12.973,5.764,28.108,18.841,31.146,31.339
				c2.24-0.486,2.516-2.48,4.819-2.365c5.424,7.137,9.58,8.447,10.671,17.818c-0.329-2.803,14.305,4.276,14.503,13.548
				c41.045-28.421,86.13-26.15,130.349-6.28c16.612,7.465,33.073,20.909,52.003,21.415c18.288,0.486,29.695-13.14,41.149-25.284
				c2.897-3.075,4.678-7.612,7.664-10.749c6.74-7.064,13.328-9.935,22.835-10.937c9.622-1.018,22.245,0.365,29.966,6.896
				c7.961,6.735,8.854,17.035,15.255,25.419c11.047-6.881,13.125-24.944,24.208-33.245c-19.838,15.782-21.467,48.103-10.661,70.035
				c0.7-0.261,3.9-1.979,4.411-2.334c0.104,0.804,0.282,1.592,0.533,2.354c1.78-1.305,2.391-1.958,4.484-2.459
				c2.161,5.732,2.866,12.305,4.871,18.262c9.225-4.26,11.094,8.557,10.718,15.5c1.895-1.279,5.257-1.347,7.105-2.709
				c0.292,2.26,2.459,4.098,2.172,7.267c1.723-0.146,4.051,0.647,5.758,0.47c-0.506,1.206-0.459,4.093-1.107,5.643
				c11.308,7.356,14.503-0.94,20.992,10.901c0.908-1.389,2.6-2.579,3.634-3.895c-0.679,7.612,5.325,14.064,13.271,13.328
				c-10.728,1.425-9.83-10.368-16.748-15.03c-9.444-6.359-22.992,5.064-21.655-15.552c-3.832-1.728-6.635-0.997-7.471-0.266"/>
			<path fill="#D8D9DA" d="M505.984,931.963c-8.677-0.115-17.406,4.798-23.816-3.628c14.701-7.711-9.768-18.361-8.238-19.802
				c2.245-2.114,39.197-9.319,39.87-8.969c-0.773-0.402-1.587-0.527-2.422-0.392c6.823-1.305,13.866-1.629,20.627-3.122
				c-0.632,0.924-1.812,2.078-2.354,2.819c6.4,3.863,14.284,0.773,20.773-1.316c7.758,4.067,19.201-0.052,28.056,3.211
				c-16.769,2.981,1.399,11.005,8.551,12.018c11.438,1.618,23.143-0.95,34.665-1.274c-0.6,0.193-0.872,0.611-0.825,1.248
				c5.403,2.067,11.021,1.817,16.393,3.55c-16.236-0.929-33,9.042-48.792,5.873c-0.177-1.415-0.277-2.756-0.381-4.187
				c-5.899-0.929-11.715-2.48-17.875-1.697c0.522-0.794,1.707-1.269,2.323-2.01c-10.546-13.151-51.334,20.632-66.015,20.225
				C506.334,933.665,506.157,932.809,505.984,931.963z"/>
			<path fill="#D8D9DA" d="M558.833,968.816c8.28,6.124,31.078-2.026,42-3.091c16.612-1.634,31.632,2.313,47.607,2.73
				c-12.519-13.668-41.4-10.462-60.168-10.467c-14.665-0.005-40.971-1.796-52.097,9.204c3.769,4.391,2.678,12.096,7.194,14.148
				c4.61,2.093,18.183-6.5,23.2-7.894"/>
			<path fill="#D8D9DA" d="M704.238,925.505c11.313,4.939,23.498,1.848,34.101,6.072c-2.015,4.197-6.432,6.641-10.384,9.392
				c2.955,3.54,7.074,5.21,11.746,4.871c-2.939,5.623-0.219,11.564,6.082,11.96c0.204-1.336,0.047-2.584,0.334-3.879
				c10.608,3.08,19.384-5.33,28.687-0.611c-5.335,5.294-13.234,6.635-17.901,12.488c0.642,0.668,1.644,1.686,2.527,2.626
				c-12.623,8.045-26.244,21.159-42.313,20.804c1.932,2.955,3.962,5.67,5.999,8.818c21.968-8.155,98.795-76.143,112.87-20.193
				c5.581,0.621,16.341-19.896,18.638-22.616c1.603-1.791,8.384-4.156,13.344-3.205c2,8.04-11.036,19.885-13.532,28.583
				c2.584-0.982,5.095-0.13,7.377-0.741c-2.469,11.908-7.878,20.251-7.601,34.801c1.164-1.634,3.336-2.772,4.396-3.942
				c-0.35,5.409,1.864,5.847,4.605,8.932c0.851-0.767,1.305-1.947,2.193-2.668c9.308,1.676,7.325,12.571,7.779,19.797
				c0.026-0.052,1.248-2.313,1.582-2.809c0.611-0.094,1.008,0.151,1.169,0.736c2.918-4.051,1.932-3.963,7.189-3.832
				c-4.067,6.442-3.326,17.108,4.934,18.183c-0.412-2.631,0.825-6.213,0.512-8.839c3.994-2.203,5.137-6.661,4.683-12.018
				c2.694,6.588,9.241,20.883,6.03,26.918c1.399,0.084,2.851,0.475,4.265,0.501c-0.355,3.613,2.104,7.34,2.088,10.624
				c3.519-2.433,7.486-5.654,11.783-6.056c0.971,5.847,2.699,11.809,5.315,16.659c7.575-2.72,15.85-11.689,17.813-19.52
				c1.535,10.42-2.527,16.555-5.638,25.743c17.776-3.091,21.013-35.297,20.026-50.416c-3.044,5.701-6.536,11.898-12.18,14.957
				c0.193-3.216-0.893-7.163-0.616-10.316c-1.07,4.25-3.654,7.836-7.152,8.645c0.104-8.076-2.13-15.954-1.942-24.072
				c1.18,3.143,4.652,5.268,5.962,7.131c1.305-3.545,3.514-6.641,3.701-10.614c2.151,2.182,6.959,5.189,8.713,7.523
				c9.893-18.794-17.698-32.493-28.541-41.791c8.656,4.088,16.638,6.03,23.895,12.519c5.027,4.49,7.57,11.277,12.409,15.317
				c-2.188-8.969-5.868-18.241-13.516-24.005c2.067,2.036,6.531,3.628,8.797,5.445c2.793-10.671-9.627-20.674-14.983-28.995
				c13.626,2.02,24.892,13.469,38.413,17.124c-6.301,5.748-16.957,19.603-1.347,21.373c5.931,0.679,21.807-11.115,25.962-14.247
				c1.331-23.467,42.548-18.899,57.49-15.171c8.52,2.13,16.2,5.456,24.714,9.204c14.628,6.442,21.874,3.801,36.633,2.24
				c-0.637,0.653-1.566,2.104-1.237,1.54c-1.885,1.796-3.43,3.842-5.346,5.69c14.404-12.404,38.163-9.773,48.761-29.303
				c-8.155,0.767-13.067-6.322-19.88-3.482c6.019-11.82,24.589-14.811,27.601-28.76c-13.49,9.898-32.514,23.665-49.058,26.944
				c9.841,2.057,14.785,7.643,7.189,13.96c-7.941,6.594-29.737,5.377-38.037,0.047c4.276-3.185,9.768-4.552,14.68-7.079
				c-2.135-0.397-4.928-0.632-7.095-0.579c-0.151-0.846-0.251-1.697-0.292-2.558c-20.757-3.211-40.11,6.004-61.744,2.558
				c1.013-0.762,2.339-2.897,4.166-3.978c-12.618-5.111-43.477,2.741-50.536-7.867c16.153-1.618,32.331,2.24,49.048-0.606
				c12.049-2.052,17.828-8.849,28.369-11.527c0.292,2.897,3.54,6.609,4.453,8.964c6.113-2.657,10.608-12.352,16.774-10.426
				c-0.381,3.686,0.825,8.055,0.501,11.694c8.906-7.904,13.934-15.824,26.108-21.18c3.936-1.733,8.165-3.566,12.211-5.142
				c2.454-0.955,4.98,2.381,7.93,1.159c0.882-0.36,5.033-8.698,6.077-9.977c0.898,1.937,3.665,3.79,4.678,5.816
				c6.061-2.522,2.339-19.864,1.399-26.416c-0.564-3.931,4.469-2.109,1.347-7.272c-1.274-2.104-8.494-1.253-10.817-6.275
				c-8.844,4.683-6.609-1.634-8.974-6.416c-3.816-7.701-1.274-7.069-7.398-12.378c-3.67-3.179-7.304-3.075-10.833-7.993
				c-3.315-4.61-4.072-11.929-7.622-16.8c-11.318,20.366-8.578,36.169-30.227,47.685c-12.785,6.808-26.881,13.788-40.982,17.667
				c2.866,0.522,5.722,2.579,8.765,3.096c-9.267,8.645-31.01,2.417-43.253,4.605c-11.365,2.031-21.718,6.797-33.584,7.424
				c-40.199,2.125-81.572,3.216-122.032,3.096c-31.741-0.099-63.029,3.085-94.906,3.096c-14.221,0-52.389-4.062-63.425,3.091"/>
			<path fill="#D8D9DA" d="M762.928,897.251c-3.654-2.073-12.378,0.71-13.626-5.737c-1.738-9.042,25.91-14.054,32.19-15.312
				c-1.415,1.54-3.164,7.074-4.344,8.807c12.075,3.848,24.37-8.045,32.201-15.114c7.1-6.411,14.466-11.063,23.201-15.088
				c3.576-1.65,5.795-4.458,9.439-5.325c0.846-0.204,4.098,4.427,7.659,3.482c8.076-2.135,16.857-13.031,24.751-17.176
				c15.589-8.17,30.556-10.373,47.91-12.368c28.687-3.305,54.697,0.517,75.736-21.462c-26.636,12.242-54.717,13.762-83.415,16.732
				c-21.201,2.193-40.251,10.493-60.215,16.894c1.618-3.472,5.638-6.933,9.147-8.802c-8.979,0.517-18.382,4.887-27.622,4.119
				c-2.229-19.102,48.38-28.019,61.656-32.237c21.269-6.756,41.279-25.623,66.104-32.561c-33.109-0.245-64.986,20.663-95.428,32.66
				c-18.136,7.157-53.626,16.424-60.256,36.811c3.018-1.034,6.019-0.658,9.032-2.756c-2.146,5.732-4.918,12.023-11.809,13.406
				c0.825,0.125,1.545,0.475,2.161,1.044c-4.401,5.602-31.329,23.362-35.323,10.206c-2.276-7.559,14.08-14.096,12.697-22.903
				c8.05-2.584,27.231-8.969,24.453-20.24c-18.919,1.436-34.822,19.175-53.584,20.042c25.435-13.923,53.24-32.065,78.163-43.175
				c-26.025-1.812-63.373,26.296-83.175,41.561c-9.59,7.398-26.432,27.998-40.032,26.056c0.486-7.612,2.866-21.702,7.92-27.737
				c9.293-11.115,29.658-10.911,41.243-21.373c8.578-7.742,10.88-14.759,21.838-20.376c17.359-8.901,35.803-16.774,53.809-24.354
				c-4.234-1.78-6.943-5.189-7.721-9.705c-7.951,2.725-14.08,9.22-22.532,10.692c3.905-2.391,3.874-6.093,5.628-8.833
				c-16.732,3.832-9.637-18.183,0.183-21.342c-8.729,5.706-19.186,14.456-28.75,17.886c2.386-15.777,20.606-24.057,17.698-41.473
				c-2.72,1.31-6.171,1.77-8.651,3.968c3.185-2.255,5.779-5.774,8.531-8.494c-12.483-5.288-34.587,12.169-42.961,19.614
				c-17.286,15.385-45.2,40.027-52.519,62.099c11.271-9.862,33.041-26.552,49.11-27.721c-5.55,6.166-15.108,11.955-13.36,21.29
				c12.989,0.799,27.2-8.191,40.058-10.509c-5.064,10.102-24.694,17.453-33.61,25.91c10.415,6.275-25.701,26.411-33.939,25.503
				c-13.944-1.524-4.678-13.38-0.72-23.519c-2.078,1.096-7.121,1.503-9.434,2.85c0.125-1.096-0.063-2.85,0.089-4.333
				c-5.205,0.496-10.744,1.415-15.223,4.417c3.383,6.996-2.96,11.626-4.96,18.345c-10.243,1.524-6.004-16.857-5.816-23.931
				c-5.758,1.258-6.416-5.435-7.81-10.932c-7.001,12.462-17.531,5.816-20.167,16.79c-5.247,21.89,9.449,46.745-1.556,69.44
				c-4.401-6.4-2.694-14.174-3.018-22.564c-0.308-8.05-1.676-15.907-1.999-23.947c-0.193-4.829,3.393-16.153,2.193-19.911
				c-1.592-4.949-21.008-23.514-2.01-25.132c0.11-1.812,0.538-3.942,0.459-5.743c20.95-0.694-0.329-45.346,6.145-55.286
				c-11.162,4.934-21.718,11.016-34.221,12.869c-12.081,1.791-11.553-0.308-19.985-8.546c10.786,0.167,10.52-8.473,3.498-13.887
				c4.73-5.147-1.707-9.324-5.21-14.216c-7.993-11.125-5.382-11.371-4.234-24.61c3.785,9.747-0.658,35.871-3.336,46.631
				c-3.279,13.213-16.377,20.486-21.326,34.472c-8.17,23.101-8.301,60.262,2.381,81.134c7.105,13.892-0.872,26.307,0.308,40.303
				c1.305,15.505,12.535,11.13,26.26,13.762c13.594,2.61,26.364,10.081,40.209,12.446c14.837,2.542,30.16,1.305,44.976,1.676
				c15.484,0.397,30.77,2.986,46.156,4.558C743.622,908.961,746.989,906.649,762.928,897.251z"/>
			<path fill="#D8D9DA" d="M1079.554,666.406c-10.018,1.566,5.727-6.484-5.038-6.761c4.495,13.302-27.988,30.823-38.857,35.459
				c8.452,17.259-34.644,41.624-45.017,52.044c10.123-5.085,26.876-11.866,38.048-11.621c-1.952,1.196-3.555,3.018-5.116,4.192
				c11.793-1.718,25.064-13.448,36.565-9.334c-5.101,9.006-38.69,17.562-35.928,29.366c1.681,7.168,17.296,2,20.23,13.929
				c-1.425,0.36-2.85,0.997-4.103,1.352c32.467,7.779-6.134,53.705-12.702,66.495c20.005-15.27,29.987-37.949,45.153-56.628
				c4.401,2.151,26.907-3.738,30.16-9.83c4.391-8.264-9.376-11.052-13.422-17.907c9.444-2.417,29.204-7.043,18.669-19.99
				c4.281-3.654,8.76-7.09,8.781-12.498c-10.389-5.529-31.418-11.908-32.316-26.641c-0.418-6.74,7.398-11.35,9.82-16.549
				c4.067-8.75-0.673-11.073,1.352-20.256c2.005,0.799,6.766,0.13,8.807,1.107c1.237-5.91-0.997-12.441-5.951-15.27"/>
			<path fill="#D8D9DA" d="M937.819,543.434c-5.774-3.273-10.603-1.368-13.699,3.482c4.025,6.923-4.714,11.402-9.381,14.8
				c1.728-0.673,5.534-0.579,7.408-1.07c-3.346,24.104-17.03,34.519-33.845,49.168c19.802-6.583,36.304-26.667,52.52-38.194
				c-3.602,0.423-7.252-1.738-10.661-2.208c1.347-4.537,3.571-8.828,5.476-13.417c-0.971,0.313-3.085,0.793-3.853,1.081
				c3.795-5.074,11.454-8.572,16.868-10.217c-3.764,0.068-10.029-1.3-10.843-1.879"/>
			<path fill="#D8D9DA" d="M981.124,568.185c-5.826,4.98-13.527,8.567-18.659,13.725c6.113-0.647,13.407-0.955,13.814,6.119
				c-8.687,2.997-13.511,9.543-13.95,18.596c-12.911-2.605-19.332,17.719-29.152,24.714c-29.027,20.653-64.349,40.23-91.095,64.934
				c29.251-21.718,60.408-40.893,90.583-61.295c6.928-4.683,24.897-25.2,32.916-15.782c1.874-4.098,5.017-6.98,9.209-7.961
				c-5.038-9.836,4.505-10.671,12.112-12.237c-0.762,0.35-1.53,0.689-2.297,1.018c5.074-1.566,9.569-3.331,14.66-2.662
				c-0.794,21.358,33.83-11.564-0.846-14.007c1.237-0.882,3.399-5.184,4.286-5.957c-6.249-3.336-14.915-5.664-20.021-9.204"/>
			<path fill="#D8D9DA" d="M772.309,512.496c-2.073-1.169-4.265-1.644-6.562-1.43c-1.796,8.4,12.744,3.252,18.904,5.967
				c-1.697,6.181-8.186,8.494-12.331,12.284c10.076-2.214,15.949-10.781,24.772-14.602c6.975-3.028,14.08-1.848,21.514-2.563
				c-5.931-2.297-15.542-4.72-22.939-6.134c-4.177-10.744-24.568,0.538-31.104,4.939"/>
			<path fill="#D8D9DA" d="M622.258,566.639c-19.092,3.383-44.125,34.644-48.547,50.875c6.63-6.97,14.268-15.604,23.477-18.288
				c-2.193,2.01-3.973,5.231-5.753,7.095c1.336-0.773,2.892-1.42,4.302-2.099c-0.58,2.391,0.903,6.145,0.465,8.588
				c1.545,0.501,5.753,1.159,7.309,1.018c-0.308-0.063-0.548,0.068-0.747,0.407c13.125-5.252,24.553-24.72,40.643-29.168
				c-3.733,4.751-9.512,8.139-10.029,13.908c1.598-0.334,4.077-0.741,5.654-1.122c0.183,0.846,0.35,1.697,0.475,2.558
				c3.686-0.24,7.189,0.585,10.702-1.159c4.344,7.063-3.054,10.65-6.369,16.664c-4.876,8.797-7.873,19.165-7.753,29.277
				c6.432-13.052,16.983-27.085,29.053-35.224c-2.25,2.762-2.548,6.119-3.853,8.828c4.97-2.13,9.909-4.594,15.145-5.659
				c-7.758,9.872,1.394,10.775,8.765,13.751c-2.454,5.92,1.441,8.656,7.486,6.964c-2.354,9.006-7.873,17.828-8.536,27.038
				c7.701-3.722,14.67-15.49,21.613-21.593c7.152-6.275,14.837-12.618,23.148-17.056c13.36-7.142,20.961-12.864-2.757-10.102
				c12.295-11.24-2.13-10.389-10.493-8.468c9.126-10.922,20.089-20.804,29.956-31.031c-15.155,5.419-38.283,22.323-53.344,18.565
				c4.73-5.429,12.415-9.841,13.313-16.701c-6.202,3.785-12.467,9.194-19.609,12.034c-7.095-7.544,4.427-16.633,8.499-23.237
				c-13.151,8.593-23.618,20.94-38.215,23.482c-5.012,0.872-11.109-0.444-16.784,1.31c0.47-1.352,0.715-2.924,1.206-4.297
				c-7.826,1.551-11.783,8.943-19.724,10.52c-1.321-6.458,3.085-11.637,5.482-16.424c-1.994,1.639-5.247,2.866-7.173,4.192
				c1.921-6.656,12.221-14.231,4.845-20.078c-5.445,3.879-10.379,8.384-15.766,12.362"/>
			<path fill="#D8D9DA" d="M961.025,1149.794c-0.752-11.146-5.497-3.775-5.878,3.409c-0.475,8.854,4.631,19.217,4.364,28.646
				c-5.941-29.502-36.884-72.436,1.31-93.804c-3.326,9.434-7.445,20.204-7.575,30.306c-0.089,5.925,4.751,23.294,11.574,11.303
				c-24.187,10.922,14.712,27.105,17.698,36.8c-2.339-7.596-6.301-15.845-11.976-21.718c4.944-2.161,9.006-6.51,7.721-13.38
				c6.943,2.631,12.081,9.444,16.925,14.879c-2.219-6.776-5.007-14.357-6.087-21.07c0.788,0.914,3.216,2.584,4.479,3.973
				c-0.559-2.229,0.454-4.86,0.162-6.954c12.843-2.595,15.615,18.335,22.731,24.349c-2.903-9.063-8.358-18.497-10.358-27.408
				c11.579-6.359,21.013,9.768,27.408,16.654c-2.015-7.888-26.025-20.486-11.908-30.572c10.102-7.21,16.748,10.139,22.694,14.613
				c-2.809-3.571-15.62-22.798-11.882-27.372c8.014-9.83,19.457,16.153,23.065,19.718c0.052-1.336-0.016-2.401,0.235-3.691
				c1.086,2.464,2.767,4.385,3.989,6.782c1.258-11.344-7.262-22.349-2.563-33.328c7.476,1.712,13.125,16.074,13.699,24.078
				c0.026-5.852-0.501-36.043,10.916-24.814c1.483-4.521,3.592-10.118,4.432-14.806c9.606,3.346,6.38,23.383,9.486,31.914
				c0.245-5.502-7.058-43.796,6.098-32.587c0.872-2.73,3.952-4.427,4.939-6.954c11.344,3.216,7.314,15.088,6.093,23.759
				c2.527-3.607,4.959-7.371,7.178-11.115c0.219,0.976,0.736,2.125,1.316,2.939c-13.882,11.115-3.994,26.923-14.545,36.57
				c-0.893-2.093-2.26-2.929-3.132-4.286c0.057,17.515-21.191,15.584-23.545,30.306c-0.585-11.073,9.387-19.149,7.455-30.342
				c-4.203,3.973-8.75,9.387-13.125,13.641c0.324-0.428,1.968-2.046,2.495-2.756c-4.338,0.882-8.494,3.78-12.023,5.884
				c-0.172-1.457-0.423-2.944-0.47-4.406c-12.942,6.975-9.11,13.286-9.319,25.701c-3.195-3.592-5.038-8.118-5.847-12.905
				c-5.863,2.245-7.831,0.365-12.472,5.649c-3.785,4.286,1.911,8.797-4.615,13.814c-1.326-0.726-1.665-1.457-3.08-2.495
				c-0.841,1.968-3.707,4.323-4.688,5.92c-0.694-1.013-2.386-2.511-3.018-3.545c-2.804,3.341-4.25,7.894-6.562,12.049
				c-1.222-2.866-2.694-2.135-2.72-6.719c-1.128,5.753-3.884,10.681-1.812,16.033c-4.688-8.076-9.439-17.646-7.815-26.928
				c-9.131,15.197,1.389,26.422-18.142,32.044c0.261,1.462,0.908,1.446,1.289,2.71c-3.435,3.644-32.968-1.284-19.729,11.715
				c7.361,7.225,30.201-0.042,38.366-2.354c13.088-3.712,22.01-12.592,34.148-17.865c9.548-4.151,19.483-4.902,29.35-8.431
				c23.707-8.478,41.003-26.401,58.69-43.31c11.558-11.052,18.784-13.934,33.031-19.797c9.439-3.889,4.683-1.018,11.924-9.402
				c4.145-4.803,8.369-6.928,10.661-13.527c-8.52-1.702-18.93,5.633-28.614,4.103c0.423-0.679,0.679-1.41,0.757-2.193
				c-12.493,4.27-6.865-23.013-7.831-29.517c-11.444,10.504,2.751,38.121-13.386,45.769c-1.796-5.56-6.343-4.714-10.932-1.545
				c4.96-13.955,3.393-33.36,16.382-44.375c-6.129-3.263-14.174-3.952-20.914-5.221c-0.177-0.856-0.35-1.718-0.538-2.569
				c-8.609-1.686-12.686,4.417-19.838,5.952c-6.385,1.363-12.556-1.718-18.57,1.864c-14.184,8.478-3.372,22.83-22.861,9.058
				c-4.928,6.484-5.946,12.028-11.172,16.889c-6.677,6.192-15.281,4.077-21.739,7.664c-8.755,4.871-4.443,10.196-10.666,14.028
				c-1.723,1.06-10.029,0.961-12.174,1.441c1.702-0.381-5.236,6.557-4.84,6.108c-1.587-1.963-5.268-3.164-6.374-4.364
				c-1.556,3.138-1.248,9.199-2.981,11.945c-2.741,4.292-4.568,3.493-8.927,6.881c-4.798,3.717-10.337,4.521-14.362,7.45"/>
			
				<linearGradient id="SVGID_2_" gradientUnits="userSpaceOnUse" x1="1203.256" y1="634.3356" x2="1220.978" y2="634.3356" gradientTransform="matrix(1 0 0 -1 0 1644.9254)">
				<stop  offset="0" style="stop-color:#FFFFFF"/>
				<stop  offset="0.1046" style="stop-color:#FAFAFA"/>
				<stop  offset="0.2282" style="stop-color:#ECECEC"/>
				<stop  offset="0.3616" style="stop-color:#D4D4D4"/>
				<stop  offset="0.5018" style="stop-color:#B2B2B2"/>
				<stop  offset="0.6474" style="stop-color:#888888"/>
				<stop  offset="0.7976" style="stop-color:#535353"/>
				<stop  offset="0.9487" style="stop-color:#161616"/>
				<stop  offset="1" style="stop-color:#000000"/>
			</linearGradient>
			<path fill="url(#SVGID_2_)" d="M1206.979,1021.205c15.604,2.271,20-30.515,3.67-18.81
				C1207.063,1004.958,1198.286,1019.931,1206.979,1021.205z"/>
			<path fill="#BCBEC0" d="M745.992,904.2c-2.255,4.819-55.297-7.784-60.136-9.909c3.879-7.544,13.782-10.321,19.614-16.231
				c-13.574,4.067-27.622,11.997-42.887,10.086c3.169-12.811,1.232-24.443,8.703-38.993c-3.179,4.495-5.534,9.522-8.666,13.944
				c0.016,0.026-4.615,14.524-8.99,17.625c-9.789,6.938-6.014,2.443-12.78-3.252c-7.017-5.915-13.459-7.972-22.089-10.869
				c-3.785-1.263-5.388,4.391-8.666,0.021c-2.595-3.44,2.031-13.234,2.85-16.8c-1.634,2.114-5.946,5.247-7.507,7.711
				c-1.216-10.029,1.117-20.935,3.049-30.77c-3.341,9.919-6.933,26.161-15.725,32.112c-5.022-6.181-2.125-15.469-4.49-22.71
				c-0.924-0.381-1.603-0.13-2.047,0.741c-5.315-17.64,3.691-40.209,3.268-58.513c-8.202,12.284-10.305,30.254-10.775,44.798
				c-7.413-10.17-7.92-22.37-8.912-34.399c-0.292-3.56-4.03-27.393-3.205-28.348c-2.631,3.07-4.025,7.612-4.615,11.538
				c0.423-2.908,1.336-5.617-1.947-4.693c-17.285,21.822,28.15,82.157,16.069,116.613c8.499,7.006,19.254,5.654,29.22,9.126
				c14.633,5.09,25.346,10.426,40.136,12.284c32.263,4.051,63.927,2.292,95.642,6.072C742.019,910.397,745.47,905.317,745.992,904.2
				z"/>
			<path fill="#BCBEC0" d="M911.523,947.155c11.25-2.971,21.243,13.328,21.655,22.819c0.324-5.064,0.324-10.112-1.044-14.874
				c4.693,0.538,8.828,2.851,12.874,5.779c-2.6-3.367-4.166-7.387-3.54-11.59c9.052,2.099,24.589,6.923,33.193,2.433
				c-16.899,1.07-35.866-3.169-52.42-6.489c-6.453-1.295-14.68-5.915-20.005-2.715"/>
			<path fill="#BCBEC0" d="M1035.272,925.505c13.866-6.75,30.974-4.484,45.832-12.007c14.78-7.481,27.972-18.873,34.874-34.2
				c5.852,2.083,11.851,4.145,17.698,5.92c-5.315,7.267-14.064,15.375-20.862,19.953c2.542-1.979,9.679-5.001,10.802,0.193
				c1.002,4.641-19.943,10.765-23.425,12.331c-22.569,10.112-39.264,7.518-63.373,6.27"/>
			<path fill="#BCBEC0" d="M979.584,1190.014c11.344-4.615,26.035,3.665,38.33-0.313c7.413-2.401,11.752-9.361,17.74-13.224
				c13.485-8.703,30.849-4.187,45.936-13.062c15.26-8.99,26.75-25.038,38.842-36.362c9.528-8.917,38.408-33.725,50.828-28.583
				c-9.585-15.761-25.424,5.654-35.824,10.535c-1.984-1.749-3.592-1.091-4.683-1.571c-0.731-1.185-1.582-2.349-2.26-3.576
				c-3.19,3.686-5.529,7.993-6.719,12.723c-0.188-0.867-0.167-2.532-0.198-3.451c-6.359,9.669-11.444,29.11-25.717,28.818
				c-1.122-4.077-2.412-6.009-0.924-10.018c-0.538,4.077-1.921,7.747-4.03,11.256c-0.668-1.206-1.289-2.652-1.921-3.868
				c-2.814,20.95-21.801,26.813-22.778,1.645c-0.031,7.189,1.274,14.586-1.942,21.055c-0.898,0.381-1.363-1.055-2.313-1.169
				c-0.365,1.681-1.728,3.597-2.167,5.727c-6.176-2.146-16.074,0.804-19.619-5.529c1.279,10.379-13.803,11.908-21.405,16.591
				c-9.282,5.711-18.831,9.115-29.669,6.38c-0.428,6.609-7.09,7.356-12.613,5.993"/>
			<path fill="#BCBEC0" d="M841.911,1009.035c-12.545,9.924-16.377,39.416-16.701,53.987c20.157-8.285,18.215,26.155,18.909,37.317
				c1.086,1.222,2.527,2.167,3.686,2.976c0.94-9.173,4.255-17.813,3.388-27.293c0.418,6.975,0.261,18.925,1.634,23.326
				c-0.35,1.415-0.454,3.649-0.188,5.069c0.219,0.146,5.967,1.874,7.528,1.89c3.592-7.596,4.417-16.294,6.573-24.396
				c-0.151,7.512-0.533,15.338,0.277,22.699c0.355-1.232,1.112-2.851,1.582-4.203c1.008,4.453,5.717,7.356,10.436,7.8
				c2.595-3.378,4.584-8.243,7.512-12.081c-1.524,4.578-2.986,9.246-1.383,13.36c4.928-3.973,10.118,0.219,12.712-5.905
				c5.262,1.733,11.047,1.754,16.659,1.049c-10.118-7.199-17.755-8.27-17.275-24.041c-2.871,7.173-2.506,15.098-4.568,22.595
				c-1.41,0-2.699,0.089-4.135-0.037c-0.611-7.888,0.073-16.168-0.465-24.036c-1.916,2.819-5.471,5.377-7.236,8.337
				c1.013-5.038,0.689-10.942-4.646-12.133c-2.224-8.249-1.357-21.697-9.58-26.291c-0.908,0.982-1.973,2.015-3.012,3.169
				c-9.178-4.171-3.044-15.813-8.938-21.269c-0.872,0.783-1.446,1.848-2.318,2.626c-11.063-3.853-11.872-17.808-11.992-24.516"/>
			<path fill="#BCBEC0" d="M863.561,1114.215c-2.088,1.227-4.192,2.443-6.291,3.67c13.13-0.047,20.042,3.315,12.342,19.071
				c5.377-7.784,15.427-12.55,20.162-20.877c-9.063-3.587-23.952-1.629-29.303-1.864"/>
			<path fill="#D8D9DA" d="M858.925,1154.059c5.346-6.291,17.802-15.129,17.682-24.229c-0.209-15.834-13.459-7.241-18.705-10.958
				c14.56,10.332-12.738,41.953-18.653,51.376c-6.996,11.13-8.932,20.903-12.576,33.37
				C834.555,1185.696,846.234,1168.985,858.925,1154.059z"/>
			<path fill="#BCBEC0" d="M905.676,1099.196c5.393,8.275,14.456,7.351,22.522,3.79c-0.642-8.243-8.144-3.414-8.979-4.897
				c-2.292-4.093-2.762-15.803-7.998-17.583C900.189,1076.757,902.084,1093.704,905.676,1099.196z"/>
			<path fill="#BCBEC0" d="M863.764,976.276c9.841,2.944-2.579,22.308-4.986,29.115c3.576-3.806,6.755-8.129,10.321-11.778
				c-2.407,10.133,1.3,15.333,0.919,24.61c0.856-1.117,4.5-3.111,5.576-4.396c0.522,2.736,2.84,4.552,3.446,6.244
				c2.151-2.814,4.766-5.158,4.907-9.486c12.295,13.01,21.023,27.836,23.185,46.035c2.84-4.391,3.696-9.768,5.508-14.644
				c0.715,2.208,2.762,4.411,3.513,6.802c0.569-1.869,2.104-3.55,2.683-5.278c4.438,6.181,7.805,14.727,8.071,22.323
				c6.442-16.847,1.812-42.887-2.443-59.881c2.234,3.263,5.518,6.834,8.426,9.105c-3.158-11.726-9.084-24.788-11.95-37.145
				c8.102-0.72,17.275,9.804,24.01,13.981c-4.056-2.516-9.11-17.014-13.182-21.431c-4.793-5.184-10.608-10.666-17.416-13.156
				c-9.945-3.639-20.961-1.691-30.562,2.052C882.893,959.706,858.805,974.804,863.764,976.276z"/>
			
				<linearGradient id="SVGID_3_" gradientUnits="userSpaceOnUse" x1="912.5444" y1="615.5386" x2="886.3249" y2="688.8717" gradientTransform="matrix(1 0 0 -1 0 1644.9254)">
				<stop  offset="0" style="stop-color:#808284"/>
				<stop  offset="0.1524" style="stop-color:#7B7D7F"/>
				<stop  offset="0.3326" style="stop-color:#6D6F71"/>
				<stop  offset="0.5268" style="stop-color:#565859"/>
				<stop  offset="0.7309" style="stop-color:#363738"/>
				<stop  offset="0.9407" style="stop-color:#0D0D0D"/>
				<stop  offset="1" style="stop-color:#000000"/>
			</linearGradient>
			<path fill="url(#SVGID_3_)" d="M894.509,950.251c-6.881-0.308-14.733,1.008-18.361,6.306c1.331,0.167,2.391,0.026,4.156,0.073
				c0,0.089,0.303,4.484,0.047,4.197c-8.619,2.422-10.828,12.065-13.516,19.943c1.692-1.603,4.411-2.913,5.779-4.098
				c-0.355,2.428-0.298,3.576-1.154,5.837c1.274-0.319,2.95-1.41,4.286-1.164c-5.09,12.101,1.091,20.528-2.234,33.757
				c0.914-1.848,4.161-4.464,5.132-5.941c0.705,3.722,3.247,7.878,4.652,10.582c2.772-4.286,4.751-10.274,6.531-14.054
				c8.416,8.885,16.163,24.584,18.606,36.978c0.151-4.411,1.253-8.896,3.018-12.885c3.999,3.096,5.936,8.186,8.264,12.947
				c2.323-7.617,3.367-23.488-1.373-30.791c0.501,0.188,3.691,1.441,3.853,1.545c-2.72-5.189-14.988-10.462-6.207-15.62
				c-3.19-7.387,2.542-14.284-0.788-21.754c3.915-1.519,8.598,0.418,11.606,3.289c-2.047-3.665-5.226-8.296-7.413-12.007
				c1.613,0.908,4.307,1.859,5.905,2.772c-6.103-12.811-25.404-18.215-38.507-18.366"/>
			<path fill="none" stroke="#000000" stroke-width="2.7842" d="M950.192,951.797c-9.194,0.365-22.229,0.47-30.509-3.247
				c8.353,5.863,18.236,12.749,23.331,21.848c1.571,2.814,6.688,27.267,8.562,27.57c-2.12-0.345-5.231,0.835-7.335,0.465
				c-0.219,7.627,4.161,14.78,2.631,22.772c-1.295-0.214-2.756-0.512-4.187-0.814c0.888,0.188-2.067,42.198-2.652,45.681
				c-1.357,8.008-3.472,14.9-7.92,21.718c-6.823,10.415-10.138,9.136-2.574,23.096c-5.383,0.391-14.8,2.443-19.598,1.551
				c-6.834-1.263-10.838-11.887-15.865,0.109c-9.1-9.162-28.014,5.999-34.002-7.037c-2.939,3.9-4.683,1.42-8.891,2.511"/>
			<path fill="none" stroke="#000000" stroke-width="2.7842" d="M1061.563,917.768c18.152-0.569,54.707-20.538,58.784-40.215"/>
			<path fill="none" stroke="#000000" stroke-width="2.7842" d="M1216.245,1002.849c2.161-0.522,3.973-0.047,5.414,1.43
				c0.047,9.616-10.279,18.669-19.076,18.444c0.219-2.245-1.086-1.827-1.801-2.866"/>
		</g>
	</g>
</g>
</svg>
